P2
# Created by IrfanView
97 98
255
255 255 255 255 255 255 255 255 255 255 255 255 255 255 255 255 255 
255 255 255 255 255 255 255 255 255 255 255 255 255 255 255 255 
255 255 255 255 255 255 255 255 255 255 255 255 255 255 255 255 
255 255 255 255 255 255 255 255 255 255 255 255 255 255 255 255 
255 255 255 255 255 255 255 255 255 255 255 255 255 255 255 255 
255 255 255 255 255 255 255 255 255 255 255 255 255 255 255 255 
255 255 255 255 255 255 255 255 255 255 255 255 255 255 255 255 255 
255 255 255 255 255 255 255 255 255 255 255 255 255 255 255 255 
255 255 255 255 255 255 255 255 255 255 255 255 255 255 255 255 
255 255 255 255 255 255 255 255 255 255 255 255 255 255 255 255 
255 204 192 221 255 255 255 255 255 255 255 255 255 255 255 255 
255 255 255 255 255 255 255 255 255 255 255 255 255 255 255 255 
255 255 255 255 255 255 255 255 255 255 255 255 255 255 255 255 255 
255 255 255 255 255 255 255 255 255 255 255 255 255 255 255 255 
255 255 255 255 255 255 255 255 255 255 255 255 255 255 255 255 
255 255 255 255 255 255 255 255 255 255 255 255 255 234 134 57 
4 4 4 4 12 95 178 255 255 255 255 255 255 255 255 255 
255 255 255 255 255 255 255 255 255 255 255 255 255 255 255 255 
255 255 255 255 255 255 255 255 255 255 255 255 255 255 255 255 255 
255 255 255 255 255 255 255 255 255 255 255 255 255 255 255 255 
255 255 255 255 255 255 255 255 255 255 255 255 255 255 255 255 
255 255 255 255 255 255 255 255 255 255 255 255 134 22 4 4 
4 4 4 4 4 4 4 57 204 255 255 255 255 255 255 255 
255 255 255 255 255 255 255 255 255 255 255 255 255 255 255 255 
255 255 255 255 255 255 255 255 255 255 255 255 255 255 255 255 255 
255 255 255 255 255 255 255 255 255 255 255 255 255 255 255 255 
255 255 255 255 255 255 255 255 255 255 255 255 255 255 255 255 
255 255 255 255 255 255 255 255 255 255 255 95 4 4 4 4 
4 4 4 4 4 4 4 4 12 178 255 255 255 255 255 255 
255 255 255 255 255 255 255 255 255 255 255 255 255 255 255 255 
255 255 255 255 255 255 255 255 255 255 255 255 255 255 255 255 255 
255 255 255 255 255 255 255 255 255 255 255 255 255 255 255 255 
255 255 255 255 255 255 255 255 255 255 255 255 255 255 255 255 
255 255 255 255 255 255 255 255 255 255 119 4 4 4 4 4 
4 4 4 4 4 4 4 4 4 4 178 255 255 255 255 255 
255 255 255 255 255 255 255 255 255 255 255 255 255 255 255 255 
255 255 255 255 255 255 255 255 255 255 255 255 255 255 255 255 255 
255 255 255 255 255 255 255 255 255 255 255 255 255 255 255 255 
255 255 255 255 255 255 255 255 255 255 255 255 255 255 255 255 
255 255 255 255 255 255 255 255 255 178 4 4 4 4 4 4 
4 4 4 4 4 4 4 4 4 4 22 227 255 255 255 255 
255 255 255 255 255 255 255 255 255 255 255 255 255 255 255 255 
255 255 255 255 255 255 255 255 255 255 255 255 255 255 255 255 255 
255 255 255 255 255 255 255 255 255 255 255 255 255 255 255 255 
255 255 255 255 255 255 255 255 255 255 255 255 255 255 255 255 
255 255 255 255 255 255 255 255 241 28 4 4 4 4 4 4 
4 4 4 4 4 4 4 4 4 4 4 119 255 255 255 255 
255 255 255 255 255 255 255 255 255 255 255 255 255 255 255 255 
255 255 255 255 255 255 255 255 255 255 255 255 255 255 255 255 255 
255 255 255 255 255 255 255 255 255 255 255 255 255 255 255 255 
255 255 255 255 255 255 255 255 255 255 255 255 255 255 255 255 
255 255 255 255 255 255 255 255 153 4 4 4 4 4 4 4 
4 4 4 4 4 4 4 4 4 4 4 12 241 255 255 255 
255 255 255 255 255 255 255 255 255 255 255 255 255 255 255 255 
255 255 255 255 255 255 255 255 255 255 255 255 255 255 255 255 255 
255 255 255 255 255 255 255 255 255 255 255 255 255 255 255 255 
255 255 255 255 255 255 255 255 255 255 255 255 255 255 255 255 
255 255 255 255 255 255 255 255 77 4 4 4 4 4 4 4 
4 4 4 4 4 4 4 4 4 4 4 4 178 255 255 255 
255 255 255 255 255 255 255 255 255 255 255 255 255 255 255 255 
255 255 255 255 255 255 255 255 255 255 255 255 255 255 255 255 255 
255 255 255 255 255 255 255 255 255 255 255 255 255 255 255 255 
255 255 255 255 255 255 255 255 255 255 255 255 255 255 255 255 
255 255 255 255 255 255 255 255 34 4 4 4 4 4 4 4 
4 4 4 4 4 4 4 4 4 4 4 4 102 255 255 255 
255 255 255 255 255 255 255 255 255 255 255 255 255 255 255 255 
255 255 255 255 255 255 255 255 255 255 255 255 255 255 255 255 255 
255 255 255 255 255 255 255 255 255 255 255 255 255 255 255 255 
255 255 255 255 255 255 255 255 255 255 255 255 255 255 255 255 
255 255 255 255 255 255 255 255 4 4 4 4 4 4 4 4 
4 4 4 4 4 4 4 4 4 4 4 4 57 255 255 255 
255 255 255 255 255 255 255 255 255 255 255 255 255 255 255 255 
255 255 255 255 255 255 255 255 255 255 255 255 255 255 255 255 255 
255 255 255 255 255 255 255 255 255 255 255 255 255 255 255 255 
255 255 255 255 255 255 255 255 255 255 255 255 255 255 255 255 
255 255 255 255 255 255 255 255 12 4 4 4 4 4 4 4 
4 4 4 4 4 4 4 4 4 4 4 4 22 255 255 255 
255 255 255 255 255 255 255 255 255 255 255 255 255 255 255 255 
255 255 255 255 255 255 255 255 255 255 255 255 255 255 255 255 255 
255 255 255 255 255 255 255 255 255 255 255 255 255 255 255 255 
255 255 255 255 255 255 255 255 255 255 255 255 255 255 255 255 
255 255 255 255 255 255 255 255 34 4 4 4 4 4 4 4 
4 4 4 4 4 4 4 4 4 4 4 4 4 215 255 255 
255 255 255 255 255 255 255 255 255 255 255 255 255 255 255 255 
255 255 255 255 255 255 255 255 255 255 255 255 255 255 255 255 255 
255 255 255 255 255 255 255 255 255 255 255 255 255 255 255 255 
255 255 255 255 255 255 255 255 255 255 255 255 255 255 255 255 
255 255 255 255 255 255 255 255 77 4 4 4 4 4 4 4 
4 4 4 4 4 4 4 4 4 4 4 4 4 178 255 255 
255 255 255 255 255 255 255 255 255 255 255 255 255 255 255 255 
255 255 255 255 255 255 255 255 255 255 255 255 255 255 255 255 255 
255 255 255 255 255 255 255 255 255 255 255 255 255 255 255 255 
255 255 255 255 255 255 255 255 255 255 255 255 255 255 255 255 
255 255 255 255 255 255 255 255 119 4 4 4 4 4 4 4 
4 4 4 4 4 4 4 4 4 4 4 4 4 128 241 192 
160 128 128 178 192 255 255 255 255 255 255 255 255 255 255 255 
255 255 255 255 255 255 255 255 255 255 255 255 255 255 255 255 255 
255 255 255 255 255 255 255 255 255 255 255 255 255 255 255 255 
255 255 255 255 255 255 255 255 255 255 255 255 255 255 255 255 
255 255 255 255 255 255 255 255 150 4 4 4 4 4 4 4 
4 4 4 4 4 4 4 4 4 4 4 4 4 12 4 4 
4 4 4 4 4 34 204 255 255 255 255 255 255 255 255 255 
255 255 255 255 255 255 255 255 255 255 255 255 255 255 255 255 255 
255 255 255 255 255 255 255 255 255 255 255 255 255 255 255 255 
255 255 255 255 255 255 255 255 255 255 255 255 255 255 255 255 
255 255 255 255 255 255 255 255 192 4 4 4 4 4 4 4 
4 4 4 4 4 4 4 4 4 4 4 4 4 4 4 4 
4 4 4 4 4 4 102 255 255 255 255 255 255 255 255 255 
255 255 255 255 255 255 255 255 255 255 255 255 255 255 255 255 255 
255 255 255 255 255 255 255 255 255 255 255 255 255 255 255 255 
255 255 255 255 255 255 255 255 255 255 255 255 255 255 255 255 
255 255 255 255 255 255 255 255 234 4 4 4 4 4 4 4 
4 4 4 4 4 4 4 4 4 4 4 4 4 4 4 4 
4 4 4 4 4 34 221 255 255 255 255 255 255 255 255 255 
255 255 255 255 255 255 255 255 255 255 255 255 255 255 255 255 255 
255 255 255 255 255 255 255 255 255 255 255 255 255 255 255 255 
255 255 255 255 255 255 255 255 255 255 255 255 255 255 255 255 
255 255 255 255 255 255 255 255 204 28 4 4 4 4 4 4 
4 4 4 4 4 4 4 4 4 4 4 4 4 4 4 4 
4 4 4 12 128 241 255 255 255 255 255 255 255 255 255 255 
255 255 255 255 255 255 255 255 255 255 255 255 255 255 255 255 255 
255 255 255 255 255 255 255 255 255 255 255 255 255 255 255 255 
255 255 255 255 255 255 255 255 255 255 255 255 255 255 255 255 
255 255 255 221 134 77 22 4 4 4 4 4 4 4 4 4 
4 4 4 4 4 4 4 4 4 4 4 4 4 4 4 4 
57 102 160 241 255 255 255 255 255 255 255 255 255 255 255 255 
255 255 255 255 255 255 255 255 255 255 255 255 255 255 255 255 255 
255 255 255 255 255 255 255 255 255 255 255 255 255 255 255 255 
255 255 255 255 255 255 255 255 255 255 255 255 255 255 255 255 
255 215 66 4 4 4 4 4 4 4 4 4 4 4 4 4 
4 4 4 4 4 4 4 4 4 4 4 4 4 4 119 255 
255 255 255 255 255 255 255 255 255 255 255 255 255 255 255 255 
255 255 255 255 255 255 255 255 255 255 255 255 255 255 255 255 255 
255 255 255 255 255 255 255 255 255 255 255 255 255 255 255 255 
255 255 255 255 255 255 255 255 255 255 255 255 255 255 255 255 
215 12 4 4 4 4 4 4 4 4 4 4 4 4 4 4 
4 4 4 4 4 4 4 4 4 4 4 4 4 4 57 255 
255 255 255 255 255 255 255 255 255 255 255 255 255 255 255 255 
255 255 255 255 255 255 255 255 255 255 255 255 255 255 255 255 255 
255 255 255 255 255 255 255 255 255 255 255 255 255 255 255 255 
255 255 255 255 255 255 255 255 255 255 255 255 255 255 255 255 
85 4 4 4 4 4 4 4 4 4 4 4 4 4 4 4 
4 4 4 4 4 4 4 4 4 4 4 4 4 4 22 255 
255 255 255 255 255 255 255 255 255 255 255 255 255 255 255 255 
255 255 255 255 255 255 255 255 255 255 255 255 255 255 255 255 255 
255 255 255 255 255 255 255 255 255 255 255 255 255 255 255 255 
255 255 255 255 255 255 255 255 255 255 255 255 255 255 255 255 
192 34 4 4 4 4 4 4 34 102 4 4 4 4 4 4 
4 4 4 4 4 4 4 4 4 4 4 4 4 4 4 227 
255 255 255 255 255 255 255 255 255 255 255 255 255 255 255 255 
255 255 255 255 255 255 255 255 255 255 255 255 255 255 255 255 255 
255 255 255 255 255 255 255 255 255 255 255 255 255 255 255 255 
255 255 255 255 255 255 255 255 255 255 255 255 255 255 255 255 
255 255 227 192 192 192 192 221 255 255 34 4 4 4 4 4 
4 4 4 4 4 4 4 4 4 4 4 4 4 4 4 178 
255 255 255 255 255 255 255 255 255 255 255 255 255 255 255 255 
255 255 255 255 255 255 255 255 255 255 255 255 255 255 255 255 255 
255 255 255 255 255 255 255 255 255 255 255 255 255 255 255 255 
255 255 255 255 255 255 255 255 255 255 255 255 255 255 255 255 
255 255 255 255 255 255 255 255 255 255 85 4 4 4 4 4 
4 4 4 4 4 4 4 4 4 4 4 4 4 4 4 134 
255 255 255 255 255 255 255 255 255 255 255 255 255 255 255 255 
255 255 255 255 255 255 255 255 255 255 255 255 255 255 255 255 255 
255 255 255 255 255 255 255 255 255 255 255 255 255 255 255 255 
255 255 255 255 255 255 255 255 255 255 255 255 255 255 255 255 
255 255 255 255 255 255 255 255 255 255 128 4 4 4 4 4 
4 4 4 77 234 215 28 4 4 4 4 4 4 4 4 95 
255 255 255 255 255 255 255 255 255 255 255 255 255 255 255 255 
255 255 255 255 255 255 255 255 255 255 255 255 255 255 255 255 255 
255 255 255 255 255 255 255 255 255 255 255 255 255 255 255 255 
255 255 255 255 255 255 255 255 255 255 255 255 255 255 255 255 
255 255 255 255 255 255 255 255 255 255 178 4 4 4 4 4 
4 4 4 153 255 255 102 4 4 4 4 4 4 4 4 51 
255 255 255 255 255 255 255 255 255 255 255 255 255 255 255 255 
255 255 255 255 255 255 255 255 255 255 255 255 255 255 255 255 255 
255 255 255 255 255 255 255 255 255 255 255 255 255 255 255 255 
255 255 255 255 255 255 255 255 255 255 255 255 255 255 255 255 
255 255 255 255 255 255 255 255 255 255 215 4 4 4 4 4 
4 4 4 95 255 227 41 4 4 4 4 4 4 4 4 4 
241 255 255 255 255 255 255 255 255 255 255 255 255 255 255 255 
255 255 255 255 255 255 255 255 255 255 255 255 255 255 255 255 255 
255 255 255 255 255 255 255 255 255 255 255 255 255 255 255 255 
255 255 255 255 255 255 255 255 255 255 255 255 255 255 255 255 
255 255 255 255 255 255 255 255 255 255 255 12 4 4 4 4 
4 4 4 4 4 4 4 4 4 4 4 4 4 4 4 4 
204 255 255 255 255 255 255 255 255 255 255 255 255 255 255 255 
255 255 255 255 255 255 255 255 255 255 255 255 255 255 255 255 255 
255 255 255 255 255 255 255 255 255 255 255 255 255 255 255 255 
255 255 255 255 255 255 255 255 255 255 255 255 255 255 255 178 
160 215 255 255 255 255 255 255 255 255 255 51 4 4 4 4 
4 4 4 4 4 4 4 4 4 4 4 4 4 4 4 4 
160 255 255 255 255 255 255 255 255 255 255 255 192 178 150 255 
255 255 255 255 255 255 255 255 255 255 255 255 255 255 255 255 255 
255 255 255 255 255 255 255 255 255 255 255 255 255 255 255 255 
255 255 255 255 255 255 255 255 255 255 255 255 255 255 255 4 
22 153 255 255 255 255 255 255 255 234 150 51 4 4 4 4 
4 4 4 4 4 4 4 4 4 4 4 4 4 4 4 4 
128 255 255 255 255 255 255 255 255 255 255 255 153 4 4 255 
255 255 255 255 255 255 255 255 255 255 255 255 255 255 255 255 255 
255 255 255 255 255 255 255 255 255 255 255 255 255 255 255 255 
255 255 255 255 255 255 255 255 255 255 255 255 255 255 241 4 
4 153 255 255 255 255 255 255 255 160 4 4 4 4 4 4 
4 4 4 4 4 4 4 4 4 4 4 4 4 4 4 4 
77 255 255 255 255 255 255 255 255 255 255 255 153 4 4 255 
255 255 255 255 255 255 255 255 255 255 255 255 255 255 255 255 255 
255 255 255 255 255 255 255 255 255 255 255 255 255 255 255 255 
255 255 255 255 255 255 255 255 255 255 255 255 255 255 255 4 
4 128 255 255 255 255 255 255 255 204 4 4 4 4 4 4 
4 4 4 4 4 4 4 4 4 4 4 4 4 4 4 4 
28 255 255 255 255 255 255 255 255 255 255 255 134 4 4 255 
255 255 255 255 255 255 255 255 255 255 255 255 255 255 255 255 255 
255 255 255 255 255 255 255 255 255 255 255 255 255 255 255 255 
255 255 255 255 255 255 255 255 255 255 255 255 255 255 255 28 
4 85 255 255 255 255 255 255 255 241 128 119 4 4 4 4 
4 4 4 4 4 4 4 4 4 4 4 4 4 4 4 4 
4 234 255 255 255 255 255 255 255 255 255 255 85 4 22 255 
255 255 255 255 255 255 255 255 255 255 255 255 255 255 255 255 255 
255 255 255 255 255 255 255 255 255 255 255 255 255 255 255 255 
255 255 255 255 255 255 255 255 255 255 255 255 255 255 255 77 
4 12 241 255 255 255 255 255 255 255 255 234 4 4 4 4 
4 4 4 4 4 4 4 4 4 4 4 4 4 4 4 4 
4 192 255 255 255 255 255 255 255 255 255 241 12 4 77 255 
255 255 255 255 255 255 255 255 255 255 255 255 255 255 255 255 255 
255 255 255 255 255 255 255 255 255 255 255 255 255 255 255 255 
255 255 255 255 255 255 255 255 255 255 255 255 255 255 255 119 
4 4 160 255 255 255 255 255 255 255 255 255 51 4 4 4 
4 4 4 4 4 4 4 4 4 4 4 4 4 4 4 4 
4 134 255 255 255 255 255 255 255 255 255 153 4 4 119 255 
255 255 255 255 255 255 255 255 255 255 255 255 255 255 255 255 255 
255 255 255 255 255 255 255 255 255 255 255 255 255 255 255 255 
255 255 255 255 255 255 255 255 255 255 255 255 255 255 255 178 
4 4 41 241 255 255 255 255 255 255 255 255 95 4 4 4 
4 4 4 4 4 4 4 4 4 4 4 4 4 4 4 4 
4 102 255 255 255 255 255 255 255 255 241 34 4 4 192 255 
255 255 255 255 255 255 255 255 255 255 255 255 255 255 255 255 255 
255 255 255 255 255 255 255 255 255 255 255 255 255 255 255 255 
255 255 255 255 255 255 255 255 255 255 255 255 255 255 255 241 
28 4 4 102 255 255 255 255 255 255 255 255 128 4 4 4 
4 4 4 4 4 4 4 4 4 4 4 4 4 4 4 4 
4 57 255 255 255 255 255 255 255 255 128 4 4 28 255 255 
255 255 255 255 255 255 255 255 255 255 255 255 255 255 255 255 255 
255 255 255 255 255 255 255 255 255 255 255 255 255 255 255 255 
255 255 255 255 255 255 255 255 255 255 255 255 255 255 255 255 
134 4 4 4 153 255 255 255 255 255 255 255 178 4 4 4 
4 4 4 4 4 4 4 4 4 4 4 4 4 4 4 4 
4 12 255 255 255 255 255 255 255 178 4 4 4 134 255 255 
255 255 255 255 255 255 255 255 255 255 255 255 255 255 255 255 255 
255 255 255 255 255 255 255 255 255 255 255 255 255 255 255 255 
255 255 255 255 255 255 255 255 255 255 255 255 255 255 255 255 
241 28 4 4 12 153 255 255 255 255 255 255 221 4 4 4 
4 4 4 4 4 4 4 4 4 4 4 4 4 4 4 4 
4 4 215 255 255 255 255 255 153 12 4 4 51 241 255 255 
255 255 255 255 255 255 255 255 255 255 255 255 192 128 57 234 255 
255 255 255 255 255 255 255 255 255 255 255 255 255 255 255 255 
255 255 255 255 255 255 255 255 255 255 255 255 255 255 255 255 
255 153 4 4 4 4 102 227 255 255 255 255 255 57 4 4 
4 4 4 4 4 4 4 4 4 4 4 4 4 4 4 4 
4 4 178 255 255 255 227 102 4 4 4 4 178 255 255 255 
255 255 255 255 255 255 255 255 255 241 150 34 4 4 41 255 255 
255 255 255 255 255 255 255 255 255 255 255 255 227 192 255 255 
255 255 255 255 255 255 255 255 255 255 255 255 255 255 255 255 
255 255 85 4 4 4 4 12 119 204 255 255 255 234 102 41 
4 4 4 4 4 4 4 4 4 4 4 4 4 4 4 4 
4 4 128 255 192 102 4 4 4 4 4 102 255 255 255 255 
255 255 255 255 255 255 255 255 160 28 4 4 4 4 85 255 255 
255 255 255 255 255 221 77 234 255 255 255 255 153 34 255 255 
255 255 255 153 128 255 255 255 255 255 255 255 255 255 255 255 
255 255 241 51 4 4 4 4 4 4 22 66 66 66 66 28 
4 4 4 4 4 4 4 4 4 4 4 4 4 4 4 4 
4 4 28 4 4 4 4 4 4 4 57 241 255 255 255 255 
255 255 255 255 255 255 234 77 4 4 4 4 4 4 128 255 255 
255 255 255 255 255 215 4 192 255 255 255 255 153 34 255 255 
255 255 255 85 85 255 255 255 255 255 241 255 255 255 255 255 
255 255 255 234 51 4 4 4 4 4 4 4 4 4 4 4 
4 4 4 4 4 4 4 4 4 4 4 4 4 4 4 4 
4 4 4 4 4 4 4 4 4 51 234 255 255 255 255 255 
255 255 255 255 255 221 41 4 4 4 4 4 4 4 153 255 255 
255 255 255 255 255 255 12 150 255 255 255 255 153 34 255 255 
255 255 255 41 128 255 255 255 255 192 22 227 255 255 255 255 
255 255 255 255 234 57 4 4 4 4 4 4 4 4 4 4 
4 4 4 4 4 4 4 4 4 4 4 4 4 4 4 4 
4 4 4 4 4 4 4 4 85 234 255 255 255 255 255 255 
255 255 255 255 221 34 4 4 4 4 4 4 4 4 192 255 255 
255 255 255 255 255 255 57 119 255 255 255 255 153 34 255 255 
255 255 241 4 160 255 255 255 255 102 51 255 255 255 255 255 
255 255 255 255 255 255 134 12 4 4 4 4 4 4 4 4 
4 4 4 4 4 4 4 4 4 4 4 4 4 4 4 4 
4 4 4 4 4 4 22 153 255 255 255 255 255 255 255 255 
255 255 255 255 66 4 4 4 4 4 4 4 4 4 221 255 255 
255 255 255 255 255 255 102 57 255 255 255 255 153 34 255 255 
255 255 204 4 204 255 255 255 241 12 134 255 255 255 255 255 
192 221 255 255 255 255 255 221 95 4 4 4 4 4 4 4 
4 4 4 4 4 4 4 4 4 4 4 4 4 4 4 4 
4 4 4 4 12 119 234 255 255 255 255 255 255 255 255 255 
255 255 255 128 4 4 4 4 4 4 4 4 4 4 241 255 255 
255 255 255 255 255 255 134 22 255 255 255 255 153 34 255 255 
255 255 153 12 241 255 255 255 160 4 227 255 255 255 255 241 
28 119 255 255 255 255 255 255 255 234 119 4 4 4 4 4 
4 4 4 4 4 4 4 4 4 4 4 4 4 4 4 4 
4 4 4 4 192 255 255 255 255 255 255 255 255 255 255 255 
255 255 221 12 4 4 4 4 4 4 4 4 4 22 255 255 255 
255 255 255 255 255 255 178 4 227 255 255 255 153 34 255 255 
255 255 119 51 255 255 255 255 77 66 255 255 255 255 255 128 
28 234 255 255 255 255 255 255 255 255 85 4 4 4 4 4 
4 4 4 4 4 4 4 4 4 4 4 4 4 4 4 4 
4 4 4 4 85 255 255 255 255 255 255 255 255 255 255 255 
255 255 85 4 4 4 4 4 4 4 4 4 4 34 255 255 255 
255 255 255 255 255 255 227 4 178 255 255 255 153 34 255 255 
255 255 77 95 255 255 255 227 4 153 255 255 255 255 227 12 
134 255 255 255 255 255 255 255 255 204 4 4 4 4 4 4 
4 4 4 4 4 4 4 4 4 4 4 4 4 4 4 4 
4 4 4 4 4 204 255 255 255 255 255 255 255 255 255 255 
255 221 4 4 4 4 4 4 4 4 4 4 4 57 255 255 255 
255 255 255 255 255 255 255 22 134 255 255 255 153 34 255 255 
255 255 28 134 255 255 255 134 12 241 255 255 255 255 95 51 
255 255 255 255 255 255 255 255 255 85 4 4 4 4 4 4 
4 4 4 4 4 4 4 4 4 4 4 4 4 4 4 4 
4 4 4 4 4 85 255 255 255 255 255 255 255 255 255 255 
255 153 4 4 4 4 4 4 4 4 4 4 4 77 255 255 255 
255 255 255 255 255 255 255 57 95 255 255 255 153 34 255 255 
255 227 4 178 255 255 255 51 95 255 255 255 255 192 4 178 
255 255 255 255 255 255 255 255 221 4 4 4 4 4 4 4 
4 4 4 4 4 4 4 4 4 4 4 4 4 4 4 4 
4 4 4 4 4 4 221 255 255 255 255 255 255 255 255 255 
255 85 4 4 4 4 4 4 4 4 4 4 4 102 255 255 255 
255 255 255 255 255 255 255 102 51 255 255 255 178 95 255 255 
255 178 4 215 255 255 204 4 178 255 255 255 255 51 85 255 
255 255 255 255 255 255 255 255 128 4 4 4 4 4 4 4 
4 4 4 4 4 4 4 4 4 4 4 4 4 4 4 4 
4 4 4 4 4 4 128 255 255 255 255 255 255 255 255 255 
255 41 4 4 4 4 4 4 4 4 4 4 4 102 255 255 255 
255 255 255 255 255 255 255 192 192 255 255 255 255 255 255 255 
255 227 192 255 255 255 119 28 241 255 255 255 153 12 215 255 
255 255 255 255 255 255 255 255 28 4 4 4 4 4 4 4 
4 4 4 4 4 4 4 4 4 4 4 4 4 4 4 4 
4 4 4 4 4 4 34 255 255 255 255 255 255 255 255 255 
255 22 4 4 4 4 4 4 4 4 4 4 4 102 255 255 255 
255 255 255 255 255 255 255 255 255 255 255 255 255 255 255 255 
255 255 255 255 255 255 178 153 255 255 255 241 28 119 255 255 
255 255 255 255 255 255 255 192 4 4 4 4 4 4 4 4 
4 4 4 4 4 4 4 4 4 4 4 4 4 4 4 4 
4 4 4 4 4 4 4 204 255 255 255 255 255 255 255 255 
255 4 4 4 4 4 4 4 4 4 4 4 4 102 255 255 255 
255 255 255 255 255 255 255 255 255 255 255 255 255 255 255 255 
255 255 255 255 255 255 255 255 255 255 255 128 28 234 255 255 
255 255 255 255 255 255 255 128 4 4 4 4 4 4 4 4 
4 4 4 4 4 4 4 4 4 4 4 4 4 4 4 4 
4 4 4 4 4 4 4 128 255 255 255 255 255 255 255 255 
255 12 4 4 4 4 4 4 4 4 4 4 4 102 255 255 255 
255 255 255 255 255 255 255 255 255 255 234 150 134 134 221 255 
255 255 255 255 255 255 255 255 255 255 255 192 178 255 255 255 
255 255 255 255 255 255 255 51 4 4 4 4 4 4 4 4 
4 4 4 4 4 4 4 4 4 4 4 4 4 4 4 4 
4 4 4 4 4 4 4 66 255 255 255 255 255 255 255 255 
255 41 4 4 4 4 4 4 4 4 4 4 4 102 255 255 255 
255 255 255 255 255 255 255 255 255 221 34 4 57 4 12 178 
255 255 255 255 255 255 255 255 255 255 255 255 255 255 255 255 
255 255 255 255 255 255 241 4 4 4 4 4 4 4 4 4 
4 4 4 4 4 4 4 4 4 4 4 4 4 4 4 4 
4 4 4 4 4 4 4 22 255 255 255 255 255 255 255 255 
255 85 4 4 4 4 4 4 4 4 4 4 4 102 255 255 255 
255 255 204 128 153 227 255 255 255 51 4 66 192 102 4 28 
134 134 204 227 102 66 28 102 227 255 255 255 255 255 255 255 
255 255 255 255 255 255 192 4 4 4 4 4 4 4 4 4 
4 4 4 4 4 4 4 4 4 4 4 4 4 4 4 4 
4 4 4 4 4 4 4 4 215 255 255 255 255 255 255 255 
255 153 4 4 4 4 4 4 4 4 4 4 4 85 255 255 255 
241 77 4 4 57 12 153 255 227 4 28 241 255 255 34 4 
28 57 4 12 4 57 4 4 41 241 255 255 255 255 255 255 
255 255 255 255 255 255 150 4 4 4 4 4 4 4 4 4 
4 4 4 4 4 4 4 4 4 4 4 4 4 4 4 4 
4 4 4 4 4 4 4 4 178 255 255 255 255 255 255 255 
255 227 4 4 4 4 4 4 4 4 4 4 4 57 255 255 255 
119 4 22 102 119 4 12 134 128 4 34 255 255 255 34 4 
102 128 12 4 57 204 192 41 4 134 255 255 255 255 255 255 
255 255 255 255 255 255 119 4 4 4 4 4 4 4 4 4 
4 4 4 4 4 4 4 4 4 4 4 4 4 4 4 4 
4 4 4 4 4 4 4 4 134 255 255 255 255 255 255 255 
255 255 85 4 4 4 4 4 4 4 4 4 4 34 255 255 192 
12 4 215 255 255 85 4 41 57 4 4 77 192 102 4 178 
255 255 178 4 178 255 255 153 4 34 192 255 255 255 255 255 
255 255 255 255 255 255 95 4 4 4 4 4 4 4 4 4 
4 4 4 4 4 4 4 4 4 4 4 4 4 4 4 4 
4 4 4 4 4 4 4 4 102 255 255 255 255 255 255 255 
255 255 204 4 4 4 4 4 4 4 4 4 4 12 178 85 22 
4 34 255 255 255 153 4 85 134 28 4 4 57 4 4 255 
255 255 255 4 134 255 255 134 4 34 57 102 255 255 255 255 
255 255 255 255 255 255 66 4 4 4 4 4 4 4 4 4 
4 4 4 4 4 4 4 4 4 4 4 4 4 4 4 4 
4 4 4 4 4 4 4 4 77 255 255 255 255 255 255 255 
255 255 255 119 4 4 4 4 4 4 4 4 4 4 4 51 57 
4 4 192 255 255 77 22 241 255 178 4 134 255 102 4 178 
255 255 192 4 4 128 119 12 85 134 28 4 178 255 255 255 
255 255 255 255 255 255 51 4 4 4 4 4 4 4 4 4 
4 4 4 4 4 4 4 4 4 4 4 4 4 4 4 4 
4 4 4 4 4 4 4 4 51 255 255 255 255 255 255 255 
255 255 255 255 66 4 4 4 4 4 4 4 4 4 4 134 255 
215 41 12 66 85 4 22 241 255 150 4 178 255 178 4 12 
119 119 22 4 4 57 4 22 255 255 128 4 128 255 255 255 
255 255 255 255 255 255 34 4 4 4 4 4 4 4 4 4 
4 4 4 4 4 4 4 4 4 4 4 4 4 4 4 4 
4 4 4 4 4 4 4 4 34 255 255 255 255 255 255 255 
255 255 255 255 227 51 4 4 4 4 4 4 4 4 28 255 255 
255 150 4 34 128 34 4 34 102 4 4 51 134 28 4 4 
4 4 51 178 234 192 41 4 153 221 41 4 95 234 255 255 
255 255 255 255 255 255 34 4 4 4 4 4 4 4 4 4 
4 4 4 4 4 4 4 4 4 4 4 4 4 4 4 4 
4 4 4 4 4 4 4 4 34 255 255 255 255 255 255 255 
255 255 255 255 255 234 51 4 4 4 4 4 4 4 4 234 255 
255 128 22 241 255 227 12 4 85 12 4 4 85 128 102 4 
4 28 227 255 255 255 221 12 4 4 4 4 4 85 241 255 
255 255 255 255 255 255 28 4 4 4 4 4 4 4 4 4 
4 4 4 4 4 4 4 4 4 4 4 4 4 4 4 4 
4 4 4 4 4 4 4 4 34 255 255 255 255 255 255 255 
255 255 255 255 255 255 234 102 4 4 4 4 4 4 4 57 178 
134 12 57 255 255 255 34 95 255 227 28 28 241 255 255 128 
4 85 255 255 255 255 255 66 4 77 215 192 85 57 119 255 
255 255 255 255 255 255 34 4 4 4 4 4 4 4 4 4 
4 4 4 4 4 4 4 4 4 4 4 4 4 4 4 4 
4 4 4 4 4 4 4 4 34 255 255 255 255 255 255 255 
255 255 255 255 255 255 255 255 178 34 4 4 4 4 4 4 4 
95 34 4 178 255 153 4 134 255 255 51 95 255 255 255 192 
4 77 255 255 255 255 255 51 4 241 255 255 215 4 51 255 
255 255 255 255 255 255 57 4 4 4 4 4 4 4 4 4 
4 4 4 4 4 4 4 4 4 4 4 4 4 4 4 4 
4 4 4 4 4 4 4 4 57 255 255 255 255 255 255 255 
255 255 255 255 255 255 255 255 255 255 153 51 4 4 4 4 57 
255 234 22 4 4 4 4 22 128 119 4 22 66 66 102 85 
4 12 128 192 192 192 192 4 28 255 255 255 204 4 34 255 
255 255 255 255 255 255 66 4 4 4 4 4 4 4 4 4 
4 4 4 4 4 4 4 4 4 4 4 4 4 4 4 4 
4 4 4 4 4 4 4 4 66 255 255 255 255 255 255 255 
255 255 255 255 255 255 255 255 255 255 255 255 215 134 66 4 51 
128 66 12 4 4 4 4 4 4 4 4 4 4 4 4 4 
4 4 4 4 4 4 4 4 4 66 128 134 95 4 85 255 
255 255 255 255 255 255 77 4 4 4 4 4 4 4 4 4 
4 4 4 4 4 4 4 4 4 4 4 4 4 4 4 4 
4 4 4 4 4 4 4 4 95 255 255 255 255 255 255 255 
255 255 255 255 255 255 255 255 255 255 255 255 255 255 221 4 4 
4 4 4 4 4 4 4 4 4 4 4 4 4 4 4 4 
4 4 4 4 4 4 4 4 4 4 4 4 4 12 204 255 
255 255 255 255 255 255 119 4 4 4 4 4 4 4 4 4 
4 4 4 4 4 4 4 4 4 4 4 4 4 4 4 4 
4 4 4 4 4 4 4 4 128 255 255 255 255 255 255 255 
255 255 255 255 255 255 255 255 255 255 255 255 255 255 178 4 4 
4 4 4 4 4 4 4 4 4 4 4 4 4 4 4 4 
4 4 4 4 4 4 4 4 4 4 4 4 4 134 255 255 
255 255 255 255 255 255 134 4 4 4 4 4 4 4 4 4 
4 4 4 4 4 4 4 4 4 4 4 4 4 4 4 4 
4 4 4 4 4 4 4 4 150 255 255 255 255 255 255 255 
255 255 255 255 255 255 255 255 255 255 255 255 255 255 153 4 4 
4 4 4 4 4 4 4 4 4 4 4 4 4 4 4 4 
4 4 4 4 4 4 4 4 4 4 4 4 4 119 255 255 
255 255 255 255 255 255 192 4 4 4 4 4 4 4 4 4 
4 4 4 4 4 4 4 4 4 4 4 4 4 4 4 4 
4 4 4 4 4 4 4 4 178 255 255 255 255 255 255 255 
255 255 255 255 255 255 255 255 255 255 255 255 255 255 128 4 4 
4 4 4 4 4 4 4 4 4 4 4 4 4 4 4 4 
4 4 4 4 4 4 4 4 4 4 4 4 4 95 255 255 
255 255 255 255 255 255 234 4 4 4 4 4 4 4 4 4 
4 4 4 4 4 4 4 4 4 4 4 4 4 4 4 4 
4 4 4 4 4 4 4 4 234 255 255 255 255 255 255 255 
255 255 255 255 255 255 255 255 255 255 255 255 255 255 102 4 4 
4 4 4 4 4 4 4 4 4 4 4 4 4 4 4 4 
4 4 4 4 4 4 4 4 4 4 4 4 4 66 255 255 
255 255 255 255 255 255 255 41 4 4 4 4 4 4 4 4 
4 4 4 4 4 4 4 4 4 4 4 4 4 4 4 4 
4 4 4 4 4 4 4 51 255 255 255 255 255 255 255 255 
255 255 255 255 255 255 255 255 255 255 255 255 255 255 102 4 4 
4 4 4 4 4 4 4 4 4 4 4 4 4 4 4 4 
4 4 4 4 4 4 4 4 4 4 4 4 4 66 255 255 
255 255 255 255 255 255 255 102 4 4 4 4 4 4 4 4 
4 4 4 4 4 4 4 4 4 4 4 4 4 4 4 4 
4 4 4 4 4 4 4 119 255 255 255 255 255 255 255 255 
255 255 255 255 255 255 255 255 255 255 255 255 255 255 102 4 4 
4 4 4 4 4 4 4 4 4 4 4 4 4 4 4 4 
4 4 4 4 4 4 4 4 4 4 4 4 4 66 255 255 
255 255 255 255 255 255 255 178 4 4 4 4 4 4 4 4 
4 4 4 4 4 4 4 4 4 4 4 4 4 4 4 4 
4 4 4 4 4 4 4 192 255 255 255 255 255 255 255 255 
255 255 255 255 255 255 255 255 255 255 255 255 255 255 102 4 4 
4 4 4 4 4 4 4 4 4 4 4 4 4 4 4 4 
4 4 4 4 4 4 4 4 4 4 4 4 4 66 255 255 
255 255 255 255 255 255 255 241 22 4 4 4 4 4 4 4 
4 4 4 4 4 4 4 4 4 4 4 4 4 4 4 4 
4 4 4 4 4 4 22 255 255 255 255 255 255 255 255 255 
255 255 255 255 255 255 255 255 255 255 255 255 255 255 102 4 4 
4 4 4 4 4 4 4 4 4 28 66 66 66 66 66 66 
57 4 4 4 4 4 4 4 4 4 4 4 4 77 255 255 
255 255 255 255 255 255 255 255 102 4 4 4 4 4 4 4 
4 4 4 4 4 4 4 4 4 4 4 4 4 4 4 4 
4 4 4 4 4 4 102 255 255 255 255 255 255 255 255 255 
255 255 255 255 255 255 255 255 255 255 255 255 255 255 134 4 4 
4 4 4 4 4 4 4 4 41 234 255 255 255 255 255 255 
255 134 4 4 4 4 4 4 4 4 4 4 4 102 255 255 
255 255 255 255 255 255 255 255 192 4 4 4 4 4 4 4 
4 4 4 34 102 128 128 128 128 128 85 12 4 4 4 4 
4 4 4 4 4 4 178 255 255 255 255 255 255 255 255 255 
255 255 255 255 255 255 255 255 255 255 255 255 255 255 178 4 4 
4 4 4 4 4 4 4 4 102 255 255 255 255 255 255 255 
255 221 4 4 4 4 4 4 4 4 4 4 4 134 255 255 
255 255 255 255 255 255 255 255 234 12 4 4 4 4 4 4 
77 160 227 255 255 255 255 255 255 255 255 255 215 150 51 4 
4 4 4 4 4 28 241 255 255 255 255 255 255 255 255 255 
255 255 255 255 255 255 255 255 255 255 255 255 255 255 227 4 4 
4 4 4 4 4 4 4 4 41 234 255 255 255 255 255 255 
255 134 4 4 4 4 4 4 4 4 4 4 4 178 255 255 
255 255 255 255 255 255 255 221 41 4 4 4 4 4 4 128 
255 255 255 255 255 255 255 255 255 255 255 255 255 255 241 77 
4 4 4 4 4 4 77 241 255 255 255 255 255 255 255 255 
255 255 255 255 255 255 255 255 255 255 255 255 255 255 255 22 4 
4 4 4 4 4 4 4 4 4 28 66 66 66 95 66 66 
57 4 4 4 4 4 4 4 4 4 4 4 4 234 255 255 
255 255 255 255 255 255 241 51 4 4 4 4 4 4 95 255 
255 255 255 255 255 255 255 255 255 255 255 255 255 255 255 241 
41 4 4 4 4 4 4 102 255 255 255 255 255 255 255 255 
255 255 255 255 255 255 255 255 255 255 255 255 255 255 255 57 4 
4 4 4 4 4 4 4 4 4 4 4 4 4 51 4 4 
4 4 4 4 4 4 4 4 4 4 4 4 34 255 255 255 
255 255 255 255 255 255 102 4 4 4 4 4 4 28 227 255 
255 255 255 255 255 255 255 255 255 255 255 255 255 255 255 255 
192 4 4 4 4 4 4 4 134 255 255 255 255 255 255 255 
255 255 255 255 255 255 255 255 255 255 255 255 255 255 255 128 4 
4 4 4 4 4 4 4 4 4 4 4 4 4 51 4 4 
4 4 4 4 4 4 4 4 4 4 4 4 102 255 255 255 
255 255 255 255 255 178 4 4 4 4 4 4 4 134 255 255 
255 255 255 255 255 255 255 255 255 255 255 255 255 255 255 255 
255 85 4 4 4 4 4 4 12 221 255 255 255 255 255 255 
255 255 255 255 255 255 255 255 255 255 255 255 255 255 255 192 4 
4 4 4 4 4 4 4 4 4 4 4 4 4 51 4 4 
4 4 4 4 4 4 4 4 4 4 4 4 160 255 255 255 
255 255 255 255 255 66 4 4 4 4 4 4 12 241 255 255 
255 255 255 255 255 255 255 255 255 255 255 255 255 255 255 255 
255 192 4 4 4 4 4 4 4 102 255 255 255 255 255 255 
255 255 255 255 255 255 255 255 255 255 255 255 255 255 255 255 41 
4 4 4 4 4 4 4 4 4 4 4 4 4 51 4 4 
4 4 4 4 4 4 4 4 4 4 4 12 241 255 255 255 
255 255 255 255 204 4 4 4 4 4 4 4 85 255 255 255 
255 255 255 255 255 255 255 255 255 255 255 255 255 255 255 255 
255 255 34 4 4 4 4 4 4 12 234 255 255 255 255 255 
255 255 255 255 255 255 255 255 255 255 255 255 255 255 255 255 134 
4 4 4 4 4 4 4 4 4 4 4 4 4 51 4 4 
4 4 4 4 4 4 4 4 4 4 4 119 255 255 255 255 
255 255 255 255 119 4 4 4 4 4 4 4 134 255 255 255 
255 255 255 255 255 255 255 255 255 255 255 255 255 255 255 255 
255 255 85 4 4 4 4 4 4 4 178 255 255 255 255 255 
255 255 255 255 255 255 255 255 255 255 255 255 255 255 255 255 241 
28 4 4 4 4 4 4 4 4 4 4 4 4 51 4 4 
4 4 4 4 4 4 4 4 4 4 4 204 255 255 255 255 
255 255 255 255 77 4 4 4 4 4 4 4 178 255 255 255 
255 255 255 255 255 255 255 255 255 255 255 255 255 255 255 255 
255 255 128 4 4 4 4 4 4 4 119 255 255 255 255 255 
255 255 255 255 255 255 255 255 255 255 255 255 255 255 255 255 255 
134 4 4 4 4 4 4 4 4 4 4 4 4 51 4 4 
4 4 4 4 4 4 4 4 4 4 102 255 255 255 255 255 
255 255 255 255 51 4 4 4 4 4 4 4 204 255 255 255 
255 255 255 255 255 255 255 255 255 255 255 255 255 255 255 255 
255 255 134 4 4 4 4 4 4 4 85 255 255 255 255 255 
255 255 255 255 255 255 255 255 255 255 255 255 255 255 255 255 255 
241 34 4 4 4 4 4 4 4 4 4 4 4 51 4 4 
4 4 4 4 4 4 4 4 4 12 227 255 255 255 255 255 
255 255 255 255 51 4 4 4 4 4 4 4 221 255 255 255 
255 255 255 255 255 255 255 255 255 255 255 255 255 255 255 255 
255 255 153 4 4 4 4 4 4 4 85 255 255 255 255 255 
255 255 255 255 255 255 255 255 255 255 255 255 255 255 255 255 255 
255 178 4 4 4 4 4 4 4 4 4 4 4 51 4 4 
4 4 4 4 4 4 4 4 4 134 255 255 255 255 255 255 
255 255 255 255 66 4 4 4 4 4 4 4 221 255 255 255 
255 255 255 255 255 255 255 255 255 255 255 255 255 255 255 255 
255 255 153 4 4 4 4 4 4 4 102 255 255 255 255 255 
255 255 255 255 255 255 255 255 255 255 255 255 255 255 255 255 255 
255 255 77 4 4 4 4 4 4 4 4 4 4 51 4 4 
4 4 4 4 4 4 4 4 57 241 255 255 255 255 255 255 
221 134 102 66 22 4 4 4 4 4 4 4 221 255 255 255 
255 255 255 255 255 255 255 255 255 255 255 255 255 255 255 255 
255 255 153 4 4 4 4 4 4 4 28 66 119 150 227 255 
255 255 255 255 255 255 255 255 255 255 255 255 255 255 255 255 255 
255 255 241 51 4 4 4 4 4 4 4 4 4 51 4 4 
4 4 4 4 4 4 4 28 221 255 255 255 255 255 192 57 
4 4 4 4 4 4 4 4 4 4 4 4 221 255 255 255 
255 255 255 255 255 255 255 255 255 255 255 255 255 255 255 255 
255 255 153 4 4 4 4 4 4 4 4 4 4 4 4 255 
255 255 255 255 255 255 255 255 255 255 255 255 255 255 255 255 255 
255 255 255 255 255 255 255 255 255 255 255 255 255 255 255 255 
255 255 255 255 255 255 255 255 255 255 255 255 255 255 255 255 
255 255 255 255 255 255 255 255 255 255 255 255 255 255 255 255 
255 255 255 255 255 255 255 255 255 255 255 255 255 255 255 255 
255 255 255 255 255 255 255 255 255 255 255 255 255 255 255 255 
