P2																																																																																																		
# Created by IrfanView																																																																																																		
99 94																																																																																																		
255																																																																																																		
255	255	255	255	255	255	255	255	255	255	255	255	255	255	255	255	255	255	255	255	255	255	255	255	255	255	255	255	255	255	255	255	255	255	255	255	255	255	255	255	255	255	255	255	255	255	255	255	255	255	255	255	255	255	255	255	255	255	255	255	255	255	255	255	255	255	255	255	255	255	255	255	255	255	255	255	255	255	255	255	255	255	255	255	255	255	255	255	255	255	255	255	255	255	255	255	255	255	255
255	255	255	255	255	255	255	255	255	255	239	211	186	170	170	177	198	225	246	255	255	255	255	255	255	255	255	255	255	255	255	255	255	255	255	255	255	255	255	255	255	255	255	255	255	255	255	255	255	255	255	255	255	255	255	255	255	255	255	255	255	255	255	255	255	255	255	255	255	255	255	255	255	255	255	255	255	255	255	255	255	255	255	255	255	255	255	255	255	255	255	255	255	255	255	255	255	255	255
255	255	255	255	255	255	239	168	100	48	16	12	9	7	7	8	11	14	22	67	101	146	188	236	255	255	255	255	255	255	255	255	255	255	255	255	255	255	255	255	255	255	255	255	255	255	255	255	255	255	255	255	255	255	255	255	255	255	255	255	255	255	255	255	255	255	255	255	255	255	255	255	255	255	255	255	255	255	255	255	255	255	255	255	255	255	255	255	255	255	255	255	255	255	255	255	255	255	255
255	255	255	255	230	115	23	7	4	4	4	4	4	4	4	4	4	4	4	4	4	5	9	16	56	117	171	232	255	255	255	255	255	255	255	255	255	255	255	255	255	255	255	255	255	255	255	255	255	255	255	255	255	255	255	255	255	255	255	255	255	255	255	255	255	255	255	255	255	255	255	255	255	255	255	255	255	255	255	255	255	255	255	255	255	255	255	255	255	255	255	255	255	255	255	255	255	255	255
255	255	255	183	39	5	4	4	4	4	4	4	4	4	4	4	4	4	4	4	4	4	4	4	4	4	8	21	66	137	215	253	255	255	255	255	255	255	255	255	255	255	255	255	255	255	255	255	255	255	255	255	255	255	255	255	255	255	255	255	255	255	255	255	255	255	255	255	255	255	255	255	255	255	255	255	255	255	255	255	255	255	255	255	255	255	255	255	255	255	255	255	255	255	255	255	255	255	255
255	255	188	17	4	4	4	4	4	4	4	4	4	4	4	4	4	4	4	4	4	4	4	4	4	4	4	4	4	5	15	68	147	229	255	255	255	255	255	255	255	255	255	255	255	255	255	255	255	255	255	255	255	255	255	255	255	255	255	255	255	255	255	255	255	255	255	255	255	255	255	255	255	255	255	255	255	255	255	255	255	255	255	255	255	255	255	255	255	255	255	255	255	255	255	255	255	255	255
255	249	40	4	4	4	4	4	4	4	48	59	56	24	5	4	4	4	4	4	4	4	4	4	4	4	4	4	4	4	4	4	6	24	104	199	253	255	255	255	255	255	255	255	255	255	255	255	255	255	255	255	255	255	255	255	255	255	255	255	255	255	255	255	255	255	255	255	255	255	255	255	255	255	255	255	255	255	255	255	255	255	255	255	255	255	255	255	255	255	255	255	255	255	255	255	255	255	255
255	180	5	4	4	4	4	4	13	166	243	246	245	239	233	206	163	141	141	106	57	19	4	4	4	4	4	4	4	4	4	4	4	4	5	18	135	242	255	255	255	255	255	255	255	255	255	255	255	255	255	255	255	255	255	255	255	255	255	255	255	255	255	255	255	255	255	255	255	255	255	255	255	255	255	255	255	255	255	255	255	255	255	255	255	255	255	255	255	255	255	255	255	255	255	255	255	255	255
255	123	4	4	4	4	4	4	91	251	255	255	255	255	255	255	255	255	255	254	244	231	182	124	69	30	6	4	4	4	4	4	4	4	4	4	8	82	230	255	255	255	255	255	255	255	255	255	255	255	255	255	255	255	255	255	255	255	255	255	255	255	255	255	255	255	255	255	255	255	255	255	255	255	255	255	255	255	255	255	255	255	255	255	255	255	255	255	255	255	255	255	255	255	255	255	255	255	255
255	129	4	4	4	4	4	4	114	255	255	255	255	255	255	255	255	255	255	255	255	255	255	255	247	238	195	132	72	19	4	4	4	4	4	4	4	5	63	213	255	255	255	255	255	255	255	255	255	255	255	255	255	255	255	255	255	255	255	255	255	255	255	255	255	255	255	255	255	255	255	255	255	255	255	255	255	255	255	255	255	255	255	255	255	255	255	255	255	255	255	255	255	255	255	255	255	255	255
255	179	5	4	4	4	4	4	92	252	255	255	255	255	255	255	255	255	255	255	255	255	255	255	255	255	255	255	247	230	179	107	39	6	4	4	4	4	4	45	203	255	255	255	255	255	255	255	255	255	255	255	255	255	255	255	255	255	255	255	255	255	255	255	255	255	255	255	255	255	255	255	255	255	255	255	255	255	255	255	255	255	255	255	255	255	255	255	255	255	255	255	255	255	255	255	255	255	255
255	242	28	4	4	4	4	4	46	248	255	255	255	255	255	255	255	255	255	255	255	255	255	255	255	255	255	255	255	255	255	253	239	192	90	18	4	4	4	4	37	197	255	255	255	255	255	255	255	255	255	255	255	255	255	255	255	255	255	255	255	255	255	255	255	255	255	255	255	255	255	255	255	255	255	255	255	255	255	255	255	255	255	255	255	255	255	255	255	255	255	255	255	255	255	255	255	255	255
255	255	135	5	4	4	4	4	6	201	255	255	255	255	255	255	255	255	255	255	255	255	255	255	255	255	255	255	255	255	255	255	255	255	250	209	94	9	4	4	4	40	205	255	255	255	255	255	255	255	255	255	255	255	255	255	255	255	255	255	255	255	255	255	255	255	255	255	255	255	255	255	255	255	255	255	255	255	255	255	255	255	255	255	255	255	255	255	255	255	255	255	255	255	255	255	255	255	255
255	255	237	35	4	4	4	4	4	83	250	255	255	255	255	255	255	255	255	255	255	255	255	255	255	255	255	255	255	255	255	255	255	255	255	255	248	161	23	4	4	4	49	217	255	255	255	255	255	255	255	255	255	255	255	255	255	255	255	255	255	255	255	255	255	255	255	255	255	255	255	255	255	255	255	255	255	255	255	255	255	255	255	255	255	255	255	255	255	255	255	255	255	255	255	255	255	255	255
255	255	255	176	7	4	4	4	4	7	160	254	255	255	255	255	255	255	255	255	255	255	255	255	255	255	255	255	255	255	255	255	255	255	255	255	255	254	184	24	4	4	4	77	238	255	255	255	255	255	255	255	255	255	255	255	255	255	255	255	255	255	255	255	255	255	255	255	255	255	255	255	255	255	255	255	255	255	255	255	255	255	255	255	255	255	255	255	255	255	255	255	255	255	255	255	255	255	255
255	255	255	252	130	5	4	4	4	4	17	160	252	255	255	255	255	255	255	255	255	255	255	255	255	255	255	255	255	255	255	255	255	255	255	255	255	255	254	168	16	4	4	7	128	252	255	255	255	255	248	196	138	100	96	116	147	198	236	255	255	255	255	255	255	255	255	255	255	255	255	255	255	255	255	255	255	255	255	255	255	255	255	255	255	255	255	255	255	255	255	255	255	255	255	255	255	255	255
255	255	255	255	249	103	5	4	4	4	4	12	106	234	255	255	255	255	255	255	255	255	255	255	255	255	255	255	255	255	255	255	255	255	255	255	255	255	255	251	124	7	4	4	19	193	255	255	255	228	83	16	5	4	4	4	5	16	34	104	197	252	255	255	255	255	255	255	255	255	255	255	255	255	255	255	255	255	255	255	255	255	255	255	255	255	255	255	255	255	255	255	255	255	255	255	255	255	255
255	255	255	255	255	241	86	5	4	4	4	4	5	46	167	248	255	255	255	255	255	255	255	255	255	255	255	255	255	255	255	255	255	255	255	255	255	255	255	255	238	68	4	4	4	75	243	255	255	125	5	4	4	4	4	4	4	4	4	4	19	97	217	255	255	255	255	255	255	255	255	255	255	255	255	255	255	255	255	255	255	255	255	255	255	255	255	255	255	255	255	255	255	255	255	255	255	255	255
255	255	255	255	255	255	238	79	5	4	4	4	4	4	11	76	211	254	255	255	255	255	255	255	255	255	255	255	255	255	255	255	255	255	255	255	255	255	255	255	255	209	38	4	4	10	181	255	246	61	4	4	4	4	4	4	4	4	4	4	4	5	37	173	253	255	255	255	255	255	255	255	255	255	255	255	255	255	255	255	255	255	255	255	255	255	255	255	255	255	255	255	255	255	255	255	255	255	255
255	255	255	255	255	255	255	238	92	6	4	4	4	4	4	4	24	117	227	255	255	255	255	255	255	255	255	255	255	255	255	255	255	255	255	255	255	255	255	255	255	254	162	11	4	4	80	247	216	28	4	4	4	4	4	4	4	4	4	4	4	4	4	19	150	252	255	255	255	255	255	255	255	255	255	255	255	255	255	255	255	255	255	255	255	255	255	255	255	255	255	255	255	255	255	255	255	255	255
255	255	255	255	255	255	255	255	245	126	10	4	4	4	4	4	4	5	40	157	245	255	255	255	255	255	255	255	255	255	255	255	255	255	255	255	255	255	255	255	255	255	247	100	4	4	13	171	164	6	4	17	125	145	31	4	4	4	4	4	4	4	4	4	19	161	255	255	255	255	255	255	255	255	255	255	255	255	255	255	255	255	255	255	255	255	255	255	255	255	255	255	255	255	255	255	255	255	255
255	255	255	255	255	255	255	255	255	251	169	32	4	4	4	4	4	4	4	10	68	184	251	255	255	255	255	255	255	255	255	255	255	255	255	255	255	255	255	255	255	255	255	218	42	4	4	23	25	4	4	129	251	254	149	4	4	15	55	11	4	4	4	4	4	31	205	255	255	255	255	255	255	255	255	255	255	255	255	255	255	255	255	255	255	255	255	255	255	255	255	255	255	255	255	255	255	255	255
255	255	255	255	255	255	255	255	255	255	254	214	74	6	4	4	4	4	4	4	4	15	104	226	255	255	255	255	255	255	255	255	255	255	255	255	246	118	83	130	216	255	255	254	169	14	4	4	4	4	4	167	255	255	209	20	4	111	239	148	8	4	4	4	4	5	79	246	255	255	255	255	255	255	255	255	255	255	255	255	255	255	255	255	255	255	255	255	255	255	255	255	255	255	255	255	255	255	255
255	255	255	255	255	255	255	255	255	255	255	255	243	154	28	4	4	4	4	4	4	4	4	40	165	250	255	255	255	255	255	255	255	255	255	255	249	180	130	56	39	199	255	255	247	93	4	4	4	4	4	92	253	255	225	37	19	199	255	215	21	4	4	4	4	4	16	190	255	255	255	255	255	255	255	255	255	255	255	255	255	255	255	255	255	255	255	255	255	255	255	255	255	255	255	255	255	255	255
255	255	255	255	255	255	255	255	255	255	255	255	255	255	214	92	10	4	4	4	4	4	4	4	13	90	227	255	255	255	255	255	227	190	249	255	255	255	240	166	29	69	240	255	255	211	30	4	4	4	4	40	228	255	217	27	82	246	255	207	15	4	4	4	4	4	4	121	255	255	255	255	255	255	255	255	255	255	255	255	255	255	255	255	255	255	255	255	255	255	255	255	255	255	255	255	255	255	255
255	255	255	255	255	255	255	255	255	255	255	255	255	255	255	247	185	70	7	4	4	4	4	4	4	4	77	242	255	255	255	215	53	84	242	255	255	255	120	13	4	9	183	255	255	253	132	5	4	4	4	9	184	255	197	25	195	255	254	130	6	45	78	21	4	4	4	81	255	255	255	255	255	255	255	255	255	255	255	255	255	255	255	255	255	255	255	255	255	255	255	255	255	255	255	255	255	255	255
255	255	255	255	255	255	255	255	255	255	255	255	255	255	255	255	255	242	172	57	6	4	4	4	4	4	7	210	255	255	246	71	71	232	255	255	255	255	84	4	4	4	127	255	255	255	221	36	4	4	4	4	151	255	180	141	252	255	201	77	155	233	250	131	4	4	4	82	255	255	255	255	255	255	255	255	255	255	255	255	255	255	255	255	255	255	255	255	255	255	255	255	255	255	255	255	255	255	255
255	255	255	255	255	255	255	255	255	255	255	255	255	255	255	255	255	255	255	237	160	50	5	4	4	4	4	205	255	255	206	21	43	111	174	251	255	255	146	6	4	4	97	255	255	255	254	114	4	4	4	4	127	255	245	248	255	233	175	230	255	255	255	193	4	4	5	131	255	255	255	255	255	255	255	255	255	255	255	255	255	255	255	255	255	255	255	255	255	255	255	255	255	255	255	255	255	255	255
255	255	255	255	255	255	255	255	255	255	255	255	255	255	255	255	255	239	203	173	133	58	5	4	4	4	4	219	255	255	223	28	4	4	25	217	255	255	226	59	5	4	135	255	255	255	255	191	11	4	4	4	127	255	255	255	255	250	252	255	255	255	255	185	4	4	33	217	255	255	255	255	255	255	255	255	255	255	255	255	255	255	255	255	255	255	255	255	255	255	255	255	255	255	255	255	255	255	255
255	255	255	255	255	255	255	255	255	255	255	255	255	255	251	193	110	44	20	5	4	4	4	4	4	4	4	222	255	255	253	89	4	4	4	165	255	255	255	226	136	129	229	255	255	255	255	216	29	4	4	4	153	255	255	255	255	255	255	255	255	254	225	92	4	29	174	253	255	255	255	255	255	255	255	255	255	255	255	255	255	255	255	255	255	255	255	255	255	255	255	255	255	255	255	255	255	255	255
255	255	255	255	255	255	255	255	255	255	255	255	255	232	106	16	4	4	4	4	4	4	4	4	4	4	13	225	255	255	255	204	27	4	4	156	255	255	255	255	255	255	255	255	255	255	255	228	39	4	4	7	185	255	255	255	255	254	228	195	157	104	37	8	58	195	253	255	255	255	255	255	255	255	255	255	255	255	255	255	255	255	255	255	255	255	255	255	255	255	255	255	255	255	255	255	255	255	255
255	255	255	255	255	255	255	255	255	255	255	255	221	58	5	4	4	4	4	4	4	4	4	4	4	4	10	224	255	255	255	253	163	49	88	228	255	255	255	255	255	255	255	255	255	255	255	228	39	4	4	42	229	255	255	255	245	138	39	14	4	4	11	96	228	255	255	255	255	255	255	255	255	255	255	255	255	255	255	255	255	255	255	255	255	255	255	255	255	255	255	255	255	255	255	255	255	255	255
255	255	255	255	255	255	255	255	255	255	255	242	68	5	4	4	4	4	4	109	170	107	11	4	4	4	4	200	255	255	255	255	253	233	247	255	252	240	253	255	255	255	255	255	255	255	255	226	38	4	8	134	254	255	255	246	116	10	4	4	4	35	159	245	255	255	255	255	255	255	255	255	255	255	255	255	255	255	255	255	255	255	255	255	255	255	255	255	255	255	255	255	255	255	255	255	255	255	255
255	255	255	255	255	255	255	255	255	255	255	121	6	4	4	4	22	27	4	212	255	251	75	4	4	4	4	157	255	255	255	255	255	255	255	250	120	47	131	242	255	255	255	255	255	255	255	210	23	4	64	237	255	255	255	169	12	4	4	4	60	207	254	255	255	255	255	255	255	255	255	255	255	255	255	255	255	255	255	255	255	255	255	255	255	255	255	255	255	255	255	255	255	255	255	255	255	255	255
255	255	255	255	255	255	255	255	255	255	211	18	4	4	4	48	198	192	17	189	255	255	78	4	4	4	4	95	251	255	255	255	255	255	255	196	18	4	9	144	253	255	255	255	255	255	255	195	11	17	185	255	255	255	242	65	4	4	4	54	218	255	255	255	255	255	255	255	255	255	255	255	255	255	255	255	255	255	255	255	255	255	255	255	255	255	255	255	255	255	255	255	255	255	255	255	255	255	255
255	255	255	255	255	255	255	255	255	255	109	5	4	4	4	175	254	254	71	184	255	240	36	4	4	4	4	36	231	255	255	255	255	255	255	147	4	4	4	32	214	255	255	255	255	255	255	164	4	97	247	255	255	255	203	15	4	4	14	179	255	255	255	255	255	255	255	255	255	255	255	255	255	255	255	255	255	255	255	255	255	255	255	255	255	255	255	255	255	255	255	255	255	255	255	255	255	255	255
255	255	255	255	255	255	255	255	255	251	33	4	4	4	4	126	253	255	131	213	255	185	13	4	4	4	4	5	182	255	255	255	255	255	255	141	4	4	4	4	111	251	255	255	255	255	255	132	38	214	255	255	255	255	168	4	4	4	49	238	255	255	255	255	255	255	255	255	255	255	255	255	255	255	255	255	255	255	255	255	255	255	255	255	255	255	255	255	255	255	255	255	255	255	255	255	255	255	255
255	255	255	255	255	255	255	255	255	222	13	4	4	49	88	49	213	255	221	246	255	132	4	4	4	4	4	4	95	250	255	255	255	255	255	163	6	4	4	4	34	225	255	255	255	255	255	100	158	254	255	255	255	255	130	4	4	4	96	255	255	255	255	255	255	255	255	255	255	255	255	255	255	255	255	255	255	255	255	255	255	255	255	255	255	255	255	255	255	255	255	255	255	255	255	255	255	255	255
255	255	255	255	255	255	255	255	255	198	10	4	4	198	252	210	183	253	255	255	255	179	12	4	4	4	4	4	30	228	255	255	255	255	255	216	27	4	4	4	9	208	255	255	255	255	255	211	248	255	255	255	255	254	92	4	4	4	145	255	255	255	255	255	255	255	255	255	255	255	255	255	255	255	255	255	255	255	255	255	255	255	255	255	255	255	255	255	255	255	255	255	255	255	255	255	255	255	255
255	255	255	255	255	255	255	255	255	221	13	4	4	235	255	255	255	255	255	255	255	248	93	6	4	4	4	4	5	158	255	255	255	255	255	252	103	5	4	4	54	233	255	255	255	255	255	255	255	255	255	255	255	236	49	4	4	7	183	255	255	255	255	255	255	255	255	255	255	255	255	255	255	255	255	255	255	255	255	255	255	255	255	255	255	255	255	255	255	255	255	255	255	255	255	255	255	255	255
255	255	255	255	255	255	255	255	255	253	40	4	4	193	255	255	255	255	255	255	255	255	234	90	8	4	4	4	4	75	246	255	255	255	255	255	224	70	22	60	199	255	255	255	255	255	255	255	255	255	255	255	255	197	15	4	4	19	203	255	255	255	255	255	255	255	255	255	255	255	255	255	255	255	255	255	255	255	255	255	255	255	255	255	255	255	255	255	255	255	255	255	255	255	255	255	255	255	255
255	255	255	255	255	255	255	255	255	255	115	5	4	77	240	255	255	255	255	255	255	255	255	243	122	15	4	4	4	17	219	255	255	255	255	255	255	237	211	234	255	255	255	255	255	255	255	255	255	255	255	255	255	126	4	4	4	29	216	255	255	255	255	255	255	255	255	255	255	255	255	255	255	255	255	255	255	255	255	255	255	255	255	255	255	255	255	255	255	255	255	255	255	255	255	255	255	255	255
255	255	255	255	255	255	255	255	255	255	215	20	4	5	93	226	255	255	255	255	255	255	255	255	250	169	42	5	4	5	204	255	255	255	255	255	255	255	255	255	255	255	255	255	255	255	255	255	255	255	255	255	244	60	4	4	4	33	222	255	255	255	255	255	255	255	255	255	255	255	255	255	255	255	255	255	255	255	255	255	255	255	255	255	255	255	255	255	255	255	255	255	255	255	255	255	255	255	255
255	255	255	255	255	255	255	255	255	255	255	134	7	4	4	45	141	211	246	255	255	255	255	255	255	255	220	134	78	102	235	255	255	255	255	255	255	255	255	255	255	255	255	255	255	255	255	255	255	255	255	255	217	29	4	4	4	45	236	255	255	255	255	255	255	255	255	255	255	255	255	255	255	255	255	255	255	255	255	255	255	255	255	255	255	255	255	255	255	255	255	255	255	255	255	255	255	255	255
255	255	255	255	255	255	255	255	255	255	255	248	89	5	4	4	4	24	65	115	165	207	236	254	255	255	255	255	255	255	255	255	255	255	255	255	255	255	255	255	255	255	255	255	255	255	255	255	255	255	255	255	185	7	4	4	4	55	250	255	255	255	255	255	255	255	255	255	255	255	255	255	255	255	255	255	255	255	255	255	255	255	255	255	255	255	255	255	255	255	255	255	255	255	255	255	255	255	255
255	255	255	255	255	255	255	255	255	255	255	255	237	94	9	4	4	4	4	4	4	19	49	115	204	249	255	255	255	255	255	255	255	255	255	255	255	255	255	255	255	255	255	255	255	255	255	255	255	255	255	255	158	4	4	4	4	60	255	255	255	255	255	255	255	255	255	255	255	255	255	255	255	255	255	255	255	255	255	255	255	255	255	255	255	255	255	255	255	255	255	255	255	255	255	255	255	255	255
255	255	255	255	255	255	255	255	255	255	255	255	255	244	138	25	4	4	4	4	4	4	4	4	20	94	203	252	255	255	255	255	255	255	255	255	255	255	255	255	255	255	255	255	255	255	255	255	255	255	255	255	143	4	4	4	4	74	255	255	255	255	255	255	255	255	255	255	255	255	255	255	255	255	255	255	255	255	255	255	255	255	255	255	255	255	255	255	255	255	255	255	255	255	255	255	255	255	255
255	255	255	255	255	255	255	255	255	255	255	255	255	255	252	204	98	22	4	4	4	4	4	4	4	4	24	122	234	255	255	255	255	255	255	255	255	255	255	255	255	255	255	255	255	255	255	255	255	255	255	255	143	4	4	4	4	89	255	255	255	255	255	255	255	255	255	255	255	255	255	255	255	255	255	255	255	255	255	255	255	255	255	255	255	255	255	255	255	255	255	255	255	255	255	255	255	255	255
255	255	255	255	255	255	255	255	255	255	255	255	255	255	255	255	252	201	100	29	5	4	4	4	4	4	4	5	69	209	254	255	255	255	255	255	255	255	255	255	255	255	255	255	255	255	255	255	255	255	255	255	143	4	4	4	4	90	255	255	255	255	255	255	255	255	255	255	255	255	255	255	255	255	255	255	255	255	255	255	255	255	255	255	255	255	255	255	255	255	255	255	255	255	255	255	255	255	255
255	255	255	255	255	255	255	255	255	255	255	255	255	255	255	255	255	255	253	215	146	59	14	4	4	4	4	4	4	32	183	253	255	255	255	255	255	255	255	255	255	255	255	255	255	255	255	255	255	255	255	255	143	4	4	4	4	90	255	255	255	255	255	255	255	255	255	255	255	255	255	255	255	255	255	255	255	255	255	255	255	255	255	255	255	255	255	255	255	255	255	255	255	255	255	255	255	255	255
255	255	255	255	255	255	255	255	255	255	255	255	255	255	255	255	255	255	255	255	255	240	184	94	26	5	4	4	4	4	32	198	254	255	255	255	255	255	255	255	255	255	255	255	255	255	255	255	255	255	255	255	147	4	4	4	4	90	255	255	255	255	255	255	255	255	255	255	255	255	255	255	255	255	255	255	255	255	255	255	255	255	255	255	255	255	255	255	255	255	255	255	255	255	255	255	255	255	255
255	255	255	255	255	255	255	255	255	255	255	255	255	255	255	255	255	255	255	255	255	255	255	253	209	106	24	4	4	4	4	56	228	255	255	255	255	255	255	255	255	255	255	255	255	255	255	255	255	255	255	255	165	4	4	4	4	89	255	255	255	255	255	255	255	255	255	255	255	255	255	255	255	255	255	255	255	255	255	255	255	255	255	255	255	255	255	255	255	255	255	255	255	255	255	255	255	255	255
255	255	255	255	255	255	255	255	255	255	255	255	255	255	255	255	255	255	255	255	255	255	255	255	255	253	198	61	6	4	4	4	121	252	255	255	255	255	255	255	255	255	255	255	255	255	255	255	255	255	255	255	178	4	4	4	4	78	255	255	255	255	255	255	255	255	255	255	255	255	255	255	255	255	255	255	255	255	255	255	255	255	255	255	255	255	255	255	255	255	255	255	255	255	255	255	255	255	255
255	255	255	255	255	255	255	255	255	255	255	255	255	255	255	255	255	255	255	255	255	255	255	255	255	255	255	230	69	5	4	4	25	221	255	255	255	255	255	255	255	255	255	255	255	255	255	255	255	255	255	255	199	11	4	4	4	69	254	255	255	255	255	255	255	255	255	255	255	255	255	255	255	255	255	255	255	255	255	255	255	255	255	255	255	255	255	255	255	255	255	255	255	255	255	255	255	255	255
255	255	255	255	255	255	255	255	255	255	255	255	255	255	255	255	255	255	255	255	255	255	255	255	255	255	255	255	205	24	4	4	4	163	255	255	255	255	255	255	255	255	255	255	255	255	255	255	255	255	255	255	219	30	4	4	4	51	245	255	255	255	255	255	255	255	255	255	255	255	255	255	255	255	255	255	255	255	255	255	255	255	255	255	255	255	255	255	255	255	255	255	255	255	255	255	255	255	255
255	255	255	255	255	255	255	255	255	255	255	255	255	255	255	255	255	255	255	255	255	255	255	255	255	255	255	255	254	92	4	4	4	125	255	255	255	255	255	255	255	255	255	255	255	255	255	255	255	255	255	255	238	51	4	4	4	34	223	255	255	255	255	255	255	255	255	255	255	255	255	255	255	255	255	255	255	255	255	255	255	255	255	255	255	255	255	255	255	255	255	255	255	255	255	255	255	255	255
255	255	255	255	255	255	255	255	255	255	255	255	255	255	255	255	255	255	255	255	255	255	255	255	255	255	255	255	255	147	4	4	4	120	255	255	255	255	255	255	255	255	255	255	255	255	255	255	255	255	255	255	253	78	4	4	4	17	199	255	255	255	255	255	255	255	255	255	255	255	255	255	255	255	255	255	255	255	255	255	255	255	255	255	255	255	255	255	255	255	255	255	255	255	255	255	255	255	255
255	255	255	255	255	255	255	255	255	255	255	255	255	255	255	255	255	255	255	255	255	255	255	255	255	255	255	255	255	169	5	4	4	128	255	255	255	255	255	255	255	255	255	255	255	255	255	255	255	255	255	255	255	125	4	4	4	4	149	255	255	255	255	255	255	255	255	255	255	255	255	255	255	255	255	255	255	255	255	255	255	255	255	255	255	255	255	255	255	255	255	255	255	255	255	255	255	255	255
240	238	236	234	232	230	228	226	224	222	220	218	216	214	212	210	208	206	204	202	200	198	196	194	192	190	188	186	184	182	180	178	176	174	172	170	168	166	164	162	160	158	156	154	152	150	148	146	144	142	140	138	136	134	132	130	128	126	124	122	120	118	116	114	112	110	108	106	104	102	100	98	96	94	92	90	88	86	84	82	80	78	76	74	72	70	68	66	64	62	60	58	56	54	52	50	48	46	44
241	239	237	235	233	231	229	227	225	223	221	219	217	215	213	211	209	207	205	203	201	199	197	195	193	191	189	187	185	183	181	179	177	175	173	171	169	167	165	163	161	159	157	155	153	151	149	147	145	143	141	139	137	135	133	131	129	127	125	123	121	119	117	115	113	111	109	107	105	103	101	99	97	95	93	91	89	87	85	83	81	79	77	75	73	71	69	67	65	63	61	59	57	55	53	51	49	47	45
242	240	238	236	234	232	230	228	226	224	222	220	218	216	214	212	210	208	206	204	202	200	198	196	194	192	190	188	186	184	182	180	178	176	174	172	170	168	166	164	162	160	158	156	154	152	150	148	146	144	142	140	138	136	134	132	130	128	126	124	122	120	118	116	114	112	110	108	106	104	102	100	98	96	94	92	90	88	86	84	82	80	78	76	74	72	70	68	66	64	62	60	58	56	54	52	50	48	46
243	241	239	237	235	233	231	229	227	225	223	221	219	217	215	213	211	209	207	205	203	201	199	197	195	193	191	189	187	185	183	181	179	177	175	173	171	169	167	165	163	161	159	157	155	153	151	149	147	145	143	141	139	137	135	133	131	129	127	125	123	121	119	117	115	113	111	109	107	105	103	101	99	97	95	93	91	89	87	85	83	81	79	77	75	73	71	69	67	65	63	61	59	57	55	53	51	49	47
244	242	240	238	236	234	232	230	228	226	224	222	220	218	216	214	212	210	208	206	204	202	200	198	196	194	192	190	188	186	184	182	180	178	176	174	172	170	168	166	164	162	160	158	156	154	152	150	148	146	144	142	140	138	136	134	132	130	128	126	124	122	120	118	116	114	112	110	108	106	104	102	100	98	96	94	92	90	88	86	84	82	80	78	76	74	72	70	68	66	64	62	60	58	56	54	52	50	48
245	243	241	239	237	235	233	231	229	227	225	223	221	219	217	215	213	211	209	207	205	203	201	199	197	195	193	191	189	187	185	183	181	179	177	175	173	171	169	167	165	163	161	159	157	155	153	151	149	147	145	143	141	139	137	135	133	131	129	127	125	123	121	119	117	115	113	111	109	107	105	103	101	99	97	95	93	91	89	87	85	83	81	79	77	75	73	71	69	67	65	63	61	59	57	55	53	51	49
255	255	255	255	255	255	255	255	255	255	255	255	255	255	255	255	255	255	255	255	255	255	255	255	255	255	255	255	178	9	4	4	14	219	255	255	255	255	255	255	255	255	255	255	255	255	255	255	255	255	255	255	255	255	255	255	208	42	4	4	4	4	38	183	250	255	255	255	255	255	255	255	255	255	255	255	255	255	255	255	255	255	255	255	255	255	255	255	255	255	255	255	255	255	255	255	255	255	255
255	255	255	255	255	255	255	255	255	255	255	255	255	255	255	255	255	255	255	255	255	255	255	255	255	255	255	255	144	4	4	4	14	219	255	255	255	255	255	255	255	255	255	255	255	255	255	255	255	255	255	255	255	255	255	255	255	195	38	4	4	4	4	17	127	234	255	255	255	255	255	255	255	255	255	255	255	255	255	255	255	255	255	255	255	255	255	255	255	255	255	255	255	255	255	255	255	255	255
255	255	255	255	255	255	255	255	255	255	255	255	255	255	255	255	255	255	255	255	255	255	255	255	255	255	255	255	107	4	4	4	13	219	255	255	255	255	255	255	255	255	255	255	255	255	255	255	255	255	255	255	255	255	255	255	255	255	205	51	5	4	4	4	5	58	187	250	255	255	255	255	255	255	255	255	255	255	255	255	255	255	255	255	255	255	255	255	255	255	255	255	255	255	255	255	255	255	255
255	255	255	255	255	255	255	255	255	255	255	255	255	255	255	255	255	255	255	255	255	255	255	255	255	255	255	255	93	4	4	4	4	204	255	255	255	255	255	255	255	255	255	255	255	255	255	255	255	255	255	255	255	255	255	255	255	255	255	227	92	12	4	4	4	4	16	105	221	254	255	255	255	255	255	255	255	255	255	255	255	255	255	255	255	255	255	255	255	255	255	255	255	255	255	255	255	255	255
255	255	255	255	255	255	255	255	255	255	255	255	255	255	255	255	255	255	255	255	255	255	255	255	255	255	255	255	96	4	4	4	4	192	255	255	255	255	255	255	255	255	255	255	255	255	255	255	255	255	255	255	255	255	255	255	255	255	255	255	248	167	48	7	4	4	4	4	39	169	246	255	255	255	255	255	255	255	255	255	255	255	255	255	255	255	255	255	255	255	255	255	255	255	255	255	255	255	255
255	255	255	255	255	255	255	255	255	255	255	255	255	255	255	255	255	255	255	255	255	255	255	255	255	255	255	255	101	4	4	4	4	158	255	255	255	255	255	255	255	255	255	255	255	255	255	255	255	255	255	255	255	255	255	255	255	255	255	255	255	255	238	147	43	7	4	4	4	9	88	208	253	255	255	255	255	255	255	255	255	255	255	255	255	255	255	255	255	255	255	255	255	255	255	255	255	255	255
255	255	255	255	255	255	255	255	255	255	255	255	255	255	255	255	255	255	255	255	255	255	255	255	255	255	255	255	113	4	4	4	4	131	255	255	255	255	255	255	255	255	255	255	255	255	255	255	255	255	255	255	255	255	255	255	255	255	255	255	255	255	255	255	236	154	59	15	4	4	4	26	135	233	254	255	255	255	255	255	255	255	255	255	255	255	255	255	255	255	255	255	255	255	255	255	255	255	255
255	255	255	255	255	255	255	255	255	255	255	255	255	255	255	255	255	255	255	255	255	255	255	255	255	255	255	255	160	5	4	4	4	85	251	255	255	255	255	255	255	255	255	255	255	255	255	255	255	255	255	255	255	255	255	255	255	255	255	255	255	255	255	255	255	255	250	190	97	26	6	4	5	45	170	244	255	255	255	255	255	255	255	255	255	255	255	255	255	255	255	255	255	255	255	255	255	255	255
255	255	255	255	255	255	255	255	255	255	255	255	255	255	255	255	255	255	255	255	255	255	255	255	255	255	255	255	197	17	4	4	4	50	236	255	255	255	255	255	255	255	255	255	255	255	255	255	255	255	255	255	255	255	255	255	255	255	255	255	255	255	255	255	255	255	255	255	254	226	146	54	11	4	7	67	176	244	255	255	255	255	255	255	255	255	255	255	255	255	255	255	255	255	255	255	255	255	255
255	255	255	255	255	255	255	255	255	255	255	255	255	255	255	255	255	255	255	255	255	255	255	255	255	255	255	255	223	27	4	4	4	9	204	255	255	255	255	255	255	255	255	255	255	255	255	255	255	255	255	255	255	255	255	255	255	255	255	255	255	255	255	255	255	255	255	255	255	255	255	249	174	65	13	4	7	62	147	229	249	255	255	255	255	255	255	255	255	255	255	255	255	255	255	255	255	255	255
255	255	255	255	255	255	255	255	255	255	255	255	255	255	255	255	255	255	255	255	255	255	255	255	255	255	255	255	251	48	4	4	4	4	143	255	255	255	255	255	255	255	255	255	255	255	255	255	255	255	255	255	255	255	255	255	255	255	255	255	255	255	255	255	255	255	255	255	255	255	255	255	255	251	184	59	8	4	4	20	84	157	219	235	241	247	249	249	249	249	246	243	243	247	253	255	255	255	255
255	255	255	255	255	255	255	255	255	255	255	255	255	255	255	255	255	255	255	255	255	255	255	255	255	255	255	255	255	95	4	4	4	4	74	246	255	255	255	255	255	255	255	255	255	255	255	255	255	255	255	255	255	255	255	255	255	255	255	255	255	255	255	255	255	255	255	255	255	255	255	255	255	255	255	243	135	16	4	4	4	4	5	22	45	74	81	81	81	81	67	55	55	70	104	201	255	255	255
255	255	255	255	255	255	255	255	255	255	255	255	255	255	255	255	255	255	255	255	255	255	255	255	255	255	255	255	255	149	5	4	4	4	22	213	255	255	255	255	255	255	255	255	255	255	255	255	255	255	255	255	255	255	255	255	255	255	255	255	255	255	255	255	255	255	255	255	255	255	255	255	255	255	255	255	253	168	20	4	4	4	4	4	4	4	4	4	4	4	4	4	4	4	4	18	202	255	255
255	255	255	255	255	255	255	255	255	255	255	255	255	255	255	255	255	255	255	255	255	255	255	255	255	255	255	255	255	193	15	4	4	4	4	115	253	255	255	255	255	255	255	255	255	255	255	255	255	255	255	255	255	255	255	255	255	255	255	255	255	255	255	255	255	255	255	255	255	255	255	255	255	255	255	255	255	254	185	37	4	4	4	4	4	4	4	4	4	4	4	4	4	4	4	4	75	255	255
255	255	255	255	255	255	255	255	255	255	255	255	255	255	255	255	255	255	255	255	255	255	255	255	255	255	255	255	255	222	28	4	4	4	4	37	225	255	255	255	255	255	255	255	255	255	255	255	255	255	255	255	255	255	255	255	255	255	255	255	255	255	255	255	255	255	255	255	255	255	255	255	255	255	255	255	255	255	255	219	76	12	5	4	4	4	4	4	7	13	12	5	4	4	4	4	26	255	255
255	255	255	255	255	255	255	255	255	255	255	255	255	255	255	255	255	255	255	255	255	255	255	255	255	255	255	255	255	252	54	4	4	4	4	4	131	252	255	255	255	255	255	255	255	255	255	255	255	255	255	255	255	255	255	255	255	255	255	255	255	255	255	255	255	255	255	255	255	255	255	255	255	255	255	255	255	255	255	255	251	195	130	98	86	87	108	134	165	196	193	123	15	4	4	4	11	251	255
255	255	255	255	255	255	255	255	255	255	255	255	255	255	255	255	255	255	255	255	255	255	255	255	255	255	255	255	255	255	107	4	4	4	4	4	26	206	255	255	255	255	255	255	255	255	255	255	255	255	255	255	255	255	255	255	255	255	255	255	255	255	255	255	255	255	255	255	250	244	227	207	228	243	252	255	255	255	255	255	255	255	255	255	255	255	255	255	255	255	255	254	124	4	4	4	21	252	255
255	255	255	255	255	255	255	255	255	255	255	255	255	255	255	255	255	255	255	255	255	255	255	255	255	255	255	255	255	255	169	9	4	4	4	4	4	67	236	255	255	255	255	255	255	255	255	255	255	255	255	255	255	255	255	255	255	255	255	255	255	255	255	255	255	253	237	155	80	37	4	4	4	35	92	161	236	251	255	255	255	255	255	255	255	255	255	255	255	255	255	255	172	4	4	4	59	255	255
255	255	255	255	255	255	255	255	255	255	255	255	255	255	255	255	255	255	255	255	255	255	255	255	255	255	255	255	255	255	230	34	4	4	4	4	4	4	91	240	255	255	255	255	255	255	255	255	255	255	255	255	255	255	255	255	255	255	255	255	255	255	255	249	202	113	28	4	4	4	4	4	4	4	4	4	25	91	173	230	245	248	249	252	252	252	252	252	252	252	251	241	92	4	4	4	118	255	255
255	255	255	255	255	255	255	255	255	255	255	255	255	255	255	255	255	255	255	255	255	255	255	255	255	255	255	255	255	255	255	122	4	4	4	4	4	4	4	83	232	255	255	255	255	255	255	255	255	255	255	255	255	255	255	255	255	255	255	255	254	243	172	67	9	4	4	4	4	4	4	4	4	4	4	4	4	4	4	11	34	56	69	88	88	88	88	88	92	93	83	34	4	4	4	9	197	255	255
255	255	255	255	255	255	255	255	255	255	255	255	255	255	255	255	255	255	255	255	255	255	255	255	255	255	255	255	255	255	255	210	25	4	4	4	4	4	4	4	44	184	252	255	255	255	255	255	255	255	255	255	255	255	255	255	255	255	253	227	139	40	4	4	4	4	4	5	16	47	90	109	94	74	47	20	12	8	5	4	4	4	4	4	4	4	4	4	4	4	4	4	4	4	4	62	255	255	255
255	255	255	255	255	255	255	255	255	255	255	255	255	255	255	255	255	255	255	255	255	255	255	255	255	255	255	255	255	255	255	255	132	7	4	4	4	4	4	4	4	11	100	217	251	255	255	255	255	255	255	255	255	255	255	255	251	224	110	19	4	4	4	4	4	5	31	139	229	255	255	255	255	255	255	254	226	185	143	89	48	13	9	5	4	4	4	4	4	4	4	4	6	12	88	228	255	255	255
255	255	255	255	255	255	255	255	255	255	255	255	255	255	255	255	255	255	255	255	255	255	255	255	255	255	255	255	255	255	255	255	245	77	5	4	4	4	4	4	4	4	4	11	82	184	242	252	255	255	255	255	255	252	239	173	77	11	4	4	4	4	4	4	7	81	226	255	255	255	255	255	255	255	255	255	255	255	255	255	255	238	190	146	109	76	70	44	44	59	76	107	159	220	255	255	255	255	255
255	255	255	255	255	255	255	255	255	255	255	255	255	255	255	255	255	255	255	255	255	255	255	255	255	255	255	255	255	255	255	255	255	235	70	5	4	4	4	4	4	4	4	4	4	4	21	74	129	153	153	148	118	76	22	4	4	4	4	4	4	4	4	21	144	251	255	255	255	255	255	255	255	255	255	255	255	255	255	255	255	255	255	255	255	255	255	255	255	255	255	255	255	255	255	255	255	255	255
255	255	255	255	255	255	255	255	255	255	255	255	255	255	255	255	255	255	255	255	255	255	255	255	255	255	255	255	255	255	255	255	255	255	243	118	13	4	4	4	4	4	4	4	4	4	4	4	4	4	4	4	4	4	4	4	4	4	4	4	4	6	66	207	255	255	255	255	255	255	255	255	255	255	255	255	255	255	255	255	255	255	255	255	255	255	255	255	255	255	255	255	255	255	255	255	255	255	255
255	255	255	255	255	255	255	255	255	255	255	255	255	255	255	255	255	255	255	255	255	255	255	255	255	255	255	255	255	255	255	255	255	255	255	255	197	74	10	4	4	4	4	4	4	4	4	4	4	4	4	4	4	4	4	4	4	4	4	5	38	159	246	255	255	255	255	255	255	255	255	255	255	255	255	255	255	255	255	255	255	255	255	255	255	255	255	255	255	255	255	255	255	255	255	255	255	255	255
255	255	255	255	255	255	255	255	255	255	255	255	255	255	255	255	255	255	255	255	255	255	255	255	255	255	255	255	255	255	255	255	255	255	255	255	255	255	219	131	59	11	6	4	4	4	4	4	4	4	4	4	4	4	4	4	5	9	57	155	242	255	255	255	255	255	255	255	255	255	255	255	255	255	255	255	255	255	255	255	255	255	255	255	255	255	255	255	255	255	255	255	255	255	255	255	255	255	255
255	255	255	255	255	255	255	255	255	255	255	255	255	255	255	255	255	255	255	255	255	255	255	255	255	255	255	255	255	255	255	255	255	255	255	255	255	255	255	255	255	239	189	139	95	61	37	12	6	6	6	6	27	45	82	125	176	231	255	255	255	255	255	255	255	255	255	255	255	255	255	255	255	255	255	255	255	255	255	255	255	255	255	255	255	255	255	255	255	255	255	255	255	255	255	255	255	255	255
255	255	255	255	255	255	255	255	255	255	255	255	255	255	255	255	255	255	255	255	255	255	255	255	255	255	255	255	255	255	255	255	255	255	255	255	255	255	255	255	255	255	255	255	255	255	255	250	227	224	228	252	255	255	255	255	255	255	255	255	255	255	255	255	255	255	255	255	255	255	255	255	255	255	255	255	255	255	255	255	255	255	255	255	255	255	255	255	255	255	255	255	255	255	255	255	255	255	255
255	255	255	255	255	255	255	255	255	255	255	255	255	255	255	255	255	255	255	255	255	255	255	255	255	255	255	255	255	255	255	255	255	255	255	255	255	255	255	255	255	255	255	255	255	255	255	255	255	255	255	255	255	255	255	255	255	255	255	255	255	255	255	255	255	255	255	255	255	255	255	255	255	255	255	255	255	255	255	255	255	255	255	255	255	255	255	255	255	255	255	255	255	255	255	255	255	255	255
