P2
#Created by Image Segmentation
70 70
255
0 0 0 0 0 0 0 0 0 0 0 0 0 0 0 0 0 0 0 0 79 25 19 22 18 17 14 15 20 19 17 18 18 19 21 21 21 23 23 24 17 17 15 16 13 11 14 0 0 0 0 0 0 0 0 0 0 0 0 0 0 0 0 0 0 0 0 0 0 0 0 0 0 0 0 0 0 0 0 0 0 0 0 0 0 0 0 0 0 136 55 15 18 20 16 18 18 20 23 25 37 38 33 48 40 34 32 39 49 46 44 29 20 16 15 8 6 0 0 0 0 0 0 0 0 0 0 0 0 0 0 0 0 0 0 0 0 0 0 0 0 0 0 0 0 0 0 0 0 0 0 0 0 0 0 0 0 0 0 120 28 13 18 21 26 31 36 45 43 47 63 80 70 74 78 70 66 71 81 84 78 66 52 27 17 10 8 7 15 0 0 0 0 0 0 0 0 0 0 0 0 0 0 0 0 0 0 0 0 0 0 0 0 0 0 0 0 0 0 0 0 0 0 0 0 0 0 0 0 28 12 15 29 0 0 0 0 0 0 0 0 0 0 0 0 0 0 0 0 106 93 85 76 52 26 13 11 8 6 7 0 0 0 0 0 0 0 0 0 0 0 0 0 0 0 0 0 0 0 0 0 0 0 0 0 0 0 0 0 0 0 0 0 0 0 0 0 61 18 11 14 0 0 0 0 0 0 0 0 0 0 0 0 0 0 0 0 0 0 0 0 106 94 88 58 28 17 14 11 8 11 0 0 0 0 0 0 0 0 0 0 0 0 0 0 0 0 0 0 0 0 0 0 0 0 0 0 0 0 0 0 0 0 0 0 0 56 32 17 12 0 0 0 0 0 0 0 0 0 0 0 0 0 0 0 0 0 0 0 0 0 123 109 92 80 54 26 16 13 10 12 12 0 0 0 0 0 0 0 0 0 0 0 0 0 0 0 0 0 0 0 0 0 0 0 0 0 0 0 0 0 0 0 0 0 52 24 20 15 0 0 0 0 0 0 0 0 0 0 0 0 0 0 0 0 0 0 0 0 0 0 0 0 117 105 89 51 28 20 13 14 12 14 0 0 0 0 0 0 0 0 0 0 0 0 0 0 0 0 0 0 0 0 0 0 0 0 0 0 0 0 0 0 0 97 20 17 18 0 0 0 0 0 0 0 0 0 0 0 0 0 0 0 0 0 0 0 0 0 0 0 0 0 119 113 93 68 43 29 25 15 10 12 0 0 0 0 0 0 0 0 0 0 0 0 0 0 0 0 0 0 0 0 0 0 0 0 0 0 0 0 0 0 170 49 18 18 0 0 0 0 0 0 0 0 0 0 0 0 0 0 0 0 0 0 0 0 0 0 0 0 0 0 0 0 111 92 64 46 43 29 12 10 0 0 0 0 0 0 0 0 0 0 0 0 0 0 0 0 0 0 0 0 0 0 0 0 0 0 0 0 0 0 119 31 15 0 0 0 0 0 0 0 0 0 0 0 0 0 0 0 0 0 0 0 0 0 0 0 0 0 0 0 0 0 119 114 93 71 39 22 12 9 11 10 0 0 0 0 0 0 0 0 0 0 0 0 0 0 0 0 0 0 0 0 0 0 0 0 0 0 0 0 116 27 14 0 0 0 0 0 0 0 0 0 0 0 0 0 0 0 0 0 0 0 0 0 0 0 0 0 0 0 0 0 121 118 104 86 47 15 15 8 11 11 13 0 0 0 0 0 0 0 0 0 0 0 0 0 0 0 0 0 0 0 0 0 0 0 0 0 0 0 110 26 0 0 0 0 0 0 0 0 0 0 0 0 0 0 0 0 0 0 0 0 0 0 0 0 0 0 0 0 0 0 121 115 107 100 77 22 20 9 9 9 10 0 0 0 0 0 0 0 0 0 0 0 0 0 0 0 0 0 0 0 0 0 0 0 0 0 0 184 80 28 0 0 0 0 0 0 0 0 0 0 0 0 0 0 0 0 0 0 0 0 0 0 0 0 0 0 0 0 0 0 122 116 111 105 90 38 22 12 10 9 12 0 0 0 0 0 0 0 0 0 0 0 0 0 0 0 0 0 0 0 0 0 0 0 0 0 0 182 49 28 0 0 0 0 0 0 0 0 0 0 0 0 0 0 0 0 0 0 0 0 0 0 0 0 0 0 0 0 0 0 123 119 116 109 99 51 25 18 13 11 14 0 0 0 0 0 0 0 0 0 0 0 0 0 0 0 0 0 0 0 0 0 0 0 0 0 0 174 32 25 0 0 0 0 0 0 0 0 0 0 0 0 0 0 0 0 0 0 0 0 0 0 0 0 0 0 0 0 0 0 124 119 117 111 99 68 31 22 20 15 19 0 0 0 0 0 0 0 0 0 0 0 0 0 0 0 0 0 0 0 0 0 0 0 0 0 0 167 34 33 0 0 0 0 0 0 0 0 0 0 0 0 0 0 0 0 0 0 0 0 0 0 0 0 0 0 0 0 0 0 124 122 120 115 100 75 36 18 21 22 22 25 0 0 0 0 0 0 0 0 0 0 0 0 0 0 0 0 0 0 0 0 0 0 0 0 0 165 30 0 0 0 0 0 0 0 0 0 0 0 0 0 0 0 0 0 0 0 0 0 0 0 0 0 0 0 0 0 0 0 124 118 120 113 103 80 45 17 18 22 23 24 0 0 0 0 0 0 0 0 0 0 0 0 0 0 0 0 0 0 0 0 0 0 0 0 0 158 26 0 0 0 0 0 0 0 0 0 0 0 0 0 0 0 0 0 0 0 0 0 0 0 0 0 0 0 0 0 0 0 121 118 119 112 104 89 50 19 16 22 20 24 0 0 0 0 0 0 0 0 0 0 0 0 0 0 0 0 0 0 0 0 0 0 0 0 0 155 27 53 0 0 0 0 0 0 0 0 0 0 0 0 0 0 0 0 0 0 0 0 0 0 0 0 0 0 0 0 0 0 112 117 114 110 105 94 56 20 18 16 17 25 0 0 0 0 0 0 0 0 0 0 0 0 0 0 0 0 0 0 0 0 0 0 0 0 0 166 37 49 0 0 0 0 0 0 0 0 0 0 0 0 0 0 0 0 0 0 0 0 0 40 38 40 45 59 68 67 63 66 78 109 114 110 104 94 58 23 17 20 15 25 0 0 0 0 0 0 0 0 0 0 0 0 0 0 0 0 0 0 0 0 0 0 0 0 0 167 53 44 109 75 62 52 48 36 0 0 0 0 0 0 0 0 0 0 0 0 0 76 71 70 79 99 102 107 101 101 95 83 67 90 112 111 105 94 59 22 14 22 15 22 0 0 0 0 0 0 0 0 0 0 0 0 0 0 0 0 0 0 0 0 0 0 0 0 0 165 65 39 70 47 53 52 55 64 65 0 0 0 0 0 0 0 0 0 0 0 0 91 0 0 0 0 0 0 129 117 109 102 94 95 108 111 108 97 63 22 15 17 19 17 0 0 0 0 0 0 0 0 0 0 0 0 0 0 0 0 0 0 0 0 0 0 0 0 0 0 71 35 68 65 89 107 0 133 122 102 0 0 0 0 0 0 0 0 0 109 107 114 114 106 0 0 125 102 96 111 117 114 109 108 114 113 113 99 60 23 14 12 11 15 0 0 0 0 0 0 0 0 0 0 0 0 0 0 0 0 0 0 0 0 0 0 0 0 0 0 95 33 82 84 104 104 93 104 105 102 92 0 0 0 0 0 0 0 0 119 102 92 68 79 79 44 32 45 63 62 71 99 113 0 121 113 117 99 65 24 16 11 10 9 0 0 0 0 0 0 0 0 0 0 0 0 0 0 0 0 0 0 0 0 0 0 0 0 0 0 125 31 99 98 85 64 70 78 37 51 37 0 0 0 0 0 0 0 0 105 88 74 0 0 118 43 31 47 50 33 53 77 0 0 0 115 116 103 68 22 11 9 18 9 0 0 0 0 0 0 0 0 0 0 0 0 0 0 0 0 0 0 0 0 0 0 0 0 0 0 140 36 106 95 66 46 0 135 40 41 0 0 0 0 0 0 0 0 105 103 101 79 0 0 148 0 74 86 81 0 0 0 0 0 0 0 115 104 73 27 9 11 16 12 0 0 0 0 0 0 0 0 0 0 0 0 0 0 0 0 0 0 0 0 0 0 0 0 0 0 146 36 109 94 58 42 0 132 88 0 0 0 0 0 0 0 0 0 0 0 119 115 105 103 0 0 0 0 0 0 0 0 0 0 0 0 117 112 85 32 16 19 40 0 0 0 0 0 0 0 0 0 0 0 0 0 0 0 0 0 0 0 0 0 0 0 0 0 0 0 0 0 109 106 87 82 0 105 0 0 0 0 0 0 0 0 0 0 0 0 0 0 0 0 0 0 0 0 0 0 0 0 0 0 0 0 118 115 95 35 20 30 0 0 0 0 0 0 0 0 0 0 0 0 0 0 0 0 0 0 0 0 0 0 0 0 0 0 0 0 0 0 0 0 0 0 0 0 0 0 0 0 0 0 0 0 0 0 0 0 0 0 0 0 0 0 0 0 0 0 0 0 0 0 0 0 110 112 99 39 20 0 0 0 0 0 0 0 0 0 0 0 0 0 0 0 0 0 0 0 0 0 0 0 0 0 0 0 0 0 0 0 0 0 0 0 0 0 0 0 0 0 0 0 0 0 0 0 0 0 0 0 0 0 0 0 0 0 0 0 0 0 0 0 0 0 105 105 95 42 20 0 0 0 0 0 0 0 0 0 0 0 0 0 0 0 0 0 0 0 0 0 0 0 0 0 0 0 0 0 0 0 0 0 0 0 0 0 0 0 0 0 0 0 0 0 0 0 0 0 0 0 0 0 0 0 0 0 0 0 0 0 0 0 0 0 105 97 86 40 0 0 0 0 0 0 0 0 0 0 0 0 0 0 0 0 0 0 0 0 0 0 0 0 0 0 0 0 0 0 0 0 0 0 0 0 0 0 0 0 0 0 0 0 0 0 0 0 0 0 0 0 0 0 0 0 0 0 0 0 0 0 0 0 0 0 108 89 75 39 0 0 0 0 0 0 0 0 0 0 0 0 0 0 0 0 0 0 0 0 0 0 0 0 0 0 0 0 0 0 0 0 0 0 0 0 0 0 0 0 0 0 0 0 0 0 0 0 121 0 0 0 0 0 0 0 0 0 0 0 0 0 0 0 0 119 111 83 64 33 0 0 0 0 0 0 0 0 0 0 0 0 0 0 0 0 0 0 0 0 0 0 0 0 0 0 0 0 0 0 0 0 0 0 0 0 0 0 0 0 0 0 0 0 0 0 0 0 0 0 0 0 0 0 0 0 0 0 0 0 0 0 0 0 0 106 109 76 50 31 0 0 0 0 0 0 0 0 0 0 0 0 0 0 0 0 0 0 0 0 0 0 0 0 0 0 0 0 0 0 0 0 0 0 0 0 0 0 0 0 0 0 0 0 0 0 0 0 94 100 0 0 0 0 0 0 0 0 0 0 0 0 0 0 116 106 104 66 45 26 0 0 0 0 0 0 0 0 0 0 0 0 0 0 0 0 0 0 0 0 0 0 0 0 0 0 0 0 0 0 0 0 0 0 0 0 0 0 0 0 0 0 0 0 0 0 0 80 52 39 67 0 0 0 0 0 0 0 0 0 0 0 0 0 108 99 98 61 38 0 0 0 0 0 0 0 0 0 0 0 0 0 0 0 0 0 0 0 0 0 0 0 0 0 0 0 0 0 0 0 0 0 0 0 0 0 0 0 0 0 0 0 0 54 60 75 81 75 73 88 77 64 0 0 0 0 0 0 0 0 0 0 0 93 89 103 89 52 31 0 0 0 0 0 0 0 0 0 0 0 0 0 0 0 0 0 0 0 0 0 0 0 0 0 0 0 0 0 0 0 0 0 0 0 0 0 0 0 0 0 0 0 85 61 46 62 70 67 78 74 64 60 60 83 0 0 0 112 0 0 0 0 117 82 78 97 78 46 29 0 0 0 0 0 0 0 0 0 0 0 0 0 0 0 0 0 0 0 0 0 0 0 0 0 0 0 0 0 0 0 0 0 0 0 0 0 0 0 0 0 129 103 71 53 46 50 57 71 59 58 52 55 48 53 72 91 98 109 105 91 85 118 116 82 60 90 68 43 31 0 0 0 0 0 0 0 0 0 0 0 0 0 0 0 0 0 0 0 0 0 0 0 0 0 0 0 0 0 0 0 0 0 0 0 0 0 0 100 119 114 94 77 48 47 47 49 39 58 46 54 54 58 60 46 43 59 75 80 73 88 71 103 122 78 49 80 75 44 31 0 0 0 0 0 0 0 0 0 0 0 0 0 0 0 0 0 0 0 0 0 0 0 0 0 0 0 0 0 0 0 0 0 0 74 99 115 95 101 100 91 70 52 60 65 60 48 66 81 75 55 68 74 66 53 49 55 63 59 61 56 56 81 114 63 45 79 70 49 29 0 0 0 0 0 0 0 0 0 0 0 0 0 0 0 0 0 0 0 0 0 0 0 0 0 0 0 0 0 0 0 0 0 88 61 75 99 72 65 71 67 64 54 62 68 68 82 0 0 0 79 68 62 0 60 49 51 44 35 49 66 68 69 93 50 52 100 61 42 30 25 0 0 0 0 0 0 0 0 0 0 0 0 0 0 0 0 0 0 0 0 0 0 0 0 0 0 0 0 0 0 0 0 95 46 59 91 65 57 57 55 61 57 53 54 69 0 0 0 0 0 0 0 0 0 70 60 43 0 0 118 93 81 70 36 54 96 65 36 25 31 31 0 0 0 0 0 0 0 0 0 0 0 0 0 0 0 0 0 0 0 0 0 0 0 0 0 0 0 0 0 0 0 108 37 50 77 74 77 0 79 41 0 0 0 0 0 0 0 0 0 0 0 0 0 0 0 0 0 0 144 108 82 50 36 70 81 60 34 23 43 44 79 0 0 0 0 0 0 0 0 0 0 0 0 0 0 0 0 0 0 0 0 0 0 0 0 0 0 0 0 0 0 138 39 59 55 84 0 0 0 0 0 0 0 0 0 0 0 0 0 0 0 0 0 0 0 0 0 0 0 109 70 40 39 79 79 51 29 23 57 63 0 0 0 0 0 0 0 0 0 0 0 0 0 0 0 0 0 0 0 0 0 0 0 0 0 0 0 0 0 0 0 144 49 51 42 0 0 0 0 0 0 0 0 0 0 0 0 0 0 0 0 0 0 0 0 0 0 0 0 102 64 42 44 88 74 38 24 26 78 0 0 0 0 0 0 0 0 0 0 0 0 0 0 0 0 0 0 0 0 0 0 0 0 0 0 0 0 0 0 0 0 0 76 32 43 0 0 0 0 0 0 0 0 0 0 0 0 0 0 0 0 0 0 0 0 0 0 0 0 90 61 42 61 84 61 30 21 30 0 0 0 0 0 0 0 0 0 0 0 0 0 0 0 0 0 0 0 0 0 0 0 0 0 0 0 0 0 0 0 0 0 0 101 36 40 33 0 0 0 0 0 0 0 0 0 0 0 0 0 0 0 0 0 0 0 0 0 0 77 50 42 42 57 69 46 19 15 44 0 0 0 0 0 0 0 0 0 0 0 0 0 0 0 0 0 0 0 0 0 0 0 0 0 0 0 0 0 0 0 0 0 0 0 61 42 29 0 0 0 0 0 0 0 0 0 0 0 0 0 0 0 0 0 0 0 0 0 94 51 36 33 38 50 50 26 18 24 77 0 0 0 0 0 0 0 0 0 0 0 0 0 0 0 0 0 0 0 0 0 0 0 0 0 0 0 0 0 0 0 0 0 0 0 84 32 38 43 56 0 0 0 0 0 0 0 0 0 0 0 0 0 0 0 0 0 0 0 77 42 31 25 35 41 35 18 17 37 100 0 0 0 0 0 0 0 0 0 0 0 0 0 0 0 0 0 0 0 0 0 0 0 0 0 0 0 0 0 0 0 0 0 0 0 96 53 33 51 35 0 0 0 0 0 0 0 0 0 0 0 0 0 0 0 0 0 0 101 60 36 28 20 21 34 25 14 30 70 106 0 0 0 0 0 0 0 0 0 0 0 0 0 0 0 0 0 0 0 0 0 0 0 0 0 0 0 0 0 0 0 0 0 0 0 0 82 28 35 23 29 0 0 0 0 0 0 0 0 0 0 0 0 0 0 0 0 0 85 50 33 20 11 15 31 25 19 64 99 107 0 0 0 0 0 0 0 0 0 0 0 0 0 0 0 0 0 0 0 0 0 0 0 0 0 0 0 0 0 0 0 0 0 0 0 0 90 56 30 20 22 0 0 0 0 0 0 0 0 0 0 0 0 0 0 0 0 0 80 45 30 22 11 13 24 16 51 94 118 109 0 0 0 0 0 0 0 0 0 0 0 0 0 0 0 0 0 0 0 0 0 0 0 0 0 0 0 0 0 0 0 0 0 0 0 0 0 82 26 17 21 0 0 0 0 0 0 0 0 0 0 0 0 0 0 0 0 73 66 42 26 14 10 13 18 0 0 0 127 111 0 0 0 0 0 0 0 0 0 0 0 0 0 0 0 0 0 0 0 0 0 0 0 0 0 0 0 0 0 0 0 0 0 0 0 0 0 87 56 14 15 29 0 0 0 0 0 0 0 0 0 0 0 0 0 0 74 69 52 38 19 14 10 10 25 0 0 0 126 116 0 0 0 0 0 0 0 0 0 0 0 0 0 0 0 0 0 0 0 0 0 0 0 0 0 0 0 0 0 0 0 0 0 0 0 0 0 97 71 25 17 23 50 0 0 0 0 0 0 0 0 0 0 0 0 88 61 51 39 30 13 10 10 0 0 0 0 0 0 122 110 0 0 0 0 0 0 0 0 0 0 0 0 0 0 0 0 0 0 0 0 0 0 0 0 0 0 0 0 0 0 0 0 0 0 0 0 0 83 54 21 15 40 58 0 0 0 0 0 0 0 0 0 0 95 70 56 52 30 21 10 10 0 0 0 0 0 0 0 0 115 0 0 0 0 0 0 0 0 0 0 0 0 0 0 0 0 0 0 0 0 0 0 0 0 0 0 0 0 0 0 0 0 0 0 0 0 0 96 76 40 17 24 53 61 0 0 0 0 0 0 0 0 87 77 59 54 35 26 13 8 0 0 0 0 0 0 0 0 0 0 120 0 0 0 0 0 0 0 0 0 0 0 0 0 0 0 0 0 0 0 0 0 0 0 0 0 0 0 0 0 0 0 0 0 0 0 0 0 82 70 35 18 28 36 49 71 78 0 93 113 92 72 63 54 44 34 17 11 0 0 0 0 0 0 0 0 0 0 0 0 0 0 0 0 0 78 0 0 0 0 0 0 0 0 0 0 0 0 0 0 0 0 0 0 0 0 0 0 0 0 0 0 0 0 0 0 0 0 0 77 65 24 14 17 22 33 44 51 50 63 47 46 30 25 21 11 9 0 0 0 0 0 0 0 0 0 0 0 0 0 0 101 49 32 33 34 35 31 0 0 0 0 0 0 0 0 0 0 0 0 0 0 0 0 0 0 0 0 0 0 0 0 0 0 0 0 0 0 0 78 74 62 31 12 12 13 19 23 22 16 15 11 10 13 9 14 0 0 0 0 0 0 0 0 0 0 0 0 0 0 67 34 31 33 34 33 31 28 28 0 0 0 0 0 0 0 0 0 0 0 0 0 0 0 0 0 0 0 0 0 0 0 0 0 0 0 0 0 0 0 74 73 59 26 16 11 11 13 11 16 12 11 16 17 0 0 0 0 0 0 0 0 0 0 0 0 0 0 0 41 38 35 34 34 35 30 25 28 27 28 0 0 0 0 0 0 0 0 0 0 0 0 0 0 0 0 0 0 0 0 0 0 0 0 0 0 0 0 0 0 80 71 70 46 33 23 22 28 40 41 58 62 0 0 0 0 0 0 0 0 0 0 0 0 0 0 0 0 34 36 32 33 33 30 34 29 25 28 30 31 26 0 0 0 0 0 0 0 0 0 0 0 0 0 0 0 0 0 0 0 0 0 0 0 0 0 0 0 0 0 0 74 70 61 49 69 68 74 71 82 91 0 0 0 0 0 0 0 0 0 0 0 0 0 0 0 55 37 38 35 35 35 28 29 35 35 31 30 25 29 29 28 0 0 0 0 0 0 0 0 0 0 0 0 0 0 0 0 0 0 0 0 0 0 0 0 0 0 0 0 0 0 72 69 60 78 89 91 100 0 0 0 0 0 0 0 0 0 0 0 0 0 0 0 0 0 34 38 34 31 34 34 35 27 31 33 37 28 32 31 33 35 30 0 0 0 0 0 0 0 0 0 0 0 0 0 0 0 0 0 0 0 0 0 0 0 0 0 0 0 0 0 0 72 67 63 92 100 110 0 0 0 0 0 0 0 0 0 0 0 0 0 0 0 39 32 36 37 42 34 30 30 32 30 32 26 34 30 29 35 35 30 31 33 30 31 0 0 0 0 0 0 0 0 0 0 0 0 0 0 0 0 0 0 0 0 0 0 0 0 0 0 0 93 67 69 68 85 0 0 0 0 0 0 0 0 0 0 0 0 0 0 48 38 35 32 35 38 36 38 35 29 36 30 29 29 31 29 29 30 35 41 38 37 37 34 0 0 0 0 0 0 0 0 0 0 0 0 0 0 0 0 0 0 0 0 0 0 0 0 0 0 0 121 39 82 79 86 103 0 0 0 0 0 0 0 0 0 0 0 0 36 30 32 33 35 37 33 31 33 33 34 35 36 31 37 33 32 32 37 36 36 36 37 39 42 0 0 0 0 0 0 0 0 0 0 0 0 0 0 0 0 0 0 0 0 0 0 0 0 0 0 0 91 49 80 88 96 105 0 0 0 0 0 0 0 0 0 0 0 31 34 32 33 34 34 30 28 36 34 35 31 33 34 34 32 38 35 33 29 35 38 40 37 36 40 0 0 0 0 0 0 0 0 0 0 0 0 0 0 0 0 0 0 0 0 0 0 0 0 0 0 147 41 58 63 95 100 107 0 0 0 0 0 0 0 0 0 35 35 34 30 36 34 31 30 32 30 29 30 33 34 34 40 37 39 33 38 42 35 39 37 36 38 40 39 0 