P2
# Created by IrfanView
100 100
255
72 71 97 145 156 153 153 153 155 157 127 70 72 72 72 72 72 
72 72 72 72 72 34 72 72 72 72 72 72 72 72 72 72 
72 72 72 72 72 72 72 72 72 72 72 72 72 72 72 72 
72 72 72 72 72 72 72 58 80 84 84 84 84 84 84 84 
84 84 84 84 84 84 84 84 84 84 84 84 84 84 84 84 
84 84 84 84 84 84 79 66 72 72 72 72 72 72 72 72 
72 72 72 71 71 93 50 85 148 152 145 81 44 121 70 72 72 72 72 72 
72 72 72 72 72 35 71 72 72 72 72 72 72 72 72 72 
72 72 72 72 72 72 72 72 72 72 72 71 71 71 71 71 
71 71 71 71 71 71 72 55 79 83 83 83 83 83 83 83 
83 83 83 83 83 83 83 83 83 83 83 83 83 83 83 83 
83 83 83 83 83 83 79 67 71 71 71 71 71 71 71 71 
71 71 71 72 71 99 50 54 54 81 61 63 57 84 72 71 72 72 72 72 
71 71 71 71 72 41 69 71 71 71 71 71 71 71 71 71 
71 71 71 71 71 71 71 71 71 71 71 72 72 72 72 72 
72 73 73 73 73 73 74 53 81 86 86 86 87 87 87 87 
87 87 87 87 87 87 87 87 87 87 87 87 87 87 87 87 
87 87 87 87 86 86 82 69 74 73 73 73 73 73 73 72 
72 72 72 61 81 142 63 49 54 116 57 55 67 155 57 61 78 77 76 76 
76 76 76 77 78 57 71 78 78 79 79 79 79 79 79 80 
80 80 81 80 80 81 81 81 81 81 81 81 81 81 81 81 
81 81 81 81 81 81 81 68 87 94 94 94 94 94 94 94 
94 94 94 94 94 94 94 94 94 94 94 94 94 94 94 94 
94 94 94 94 94 94 86 75 81 81 81 81 81 81 81 81 
81 81 81 35 89 141 142 134 142 129 138 147 155 156 62 41 31 51 67 80 
80 81 81 81 81 71 71 81 80 81 81 81 81 81 81 81 
81 81 81 81 81 81 81 81 81 81 81 81 81 81 81 81 
81 81 81 81 81 80 81 73 85 94 94 94 94 94 93 94 
94 94 94 94 94 94 94 94 94 94 94 94 94 94 94 94 
94 94 94 94 94 94 83 74 80 81 81 81 81 81 81 81 
81 81 81 54 48 92 108 142 134 116 95 152 124 67 42 51 54 54 49 38 
83 81 81 81 81 67 70 79 81 81 81 81 81 81 81 81 
81 81 81 81 81 81 81 81 81 81 81 81 81 81 81 81 
81 81 81 81 80 81 81 68 86 94 94 94 93 92 94 94 
94 94 94 94 94 94 94 94 94 94 94 94 94 94 94 94 
94 94 94 94 94 94 84 73 81 80 81 81 81 81 81 81 
81 81 81 41 57 30 48 120 127 153 151 90 89 28 36 84 35 47 53 27 
54 72 70 69 68 56 60 67 67 70 71 71 69 67 67 67 
69 71 71 71 70 69 68 68 69 70 70 69 68 68 68 69 
70 70 69 67 67 68 69 52 79 83 82 80 80 80 80 81 
81 81 81 81 81 82 82 81 82 82 80 80 83 84 84 82 
82 81 81 81 81 83 65 66 72 74 72 71 70 69 69 69 
69 70 70 191 94 32 41 137 100 120 100 134 120 29 46 196 60 37 55 37 
41 69 69 67 65 50 58 59 62 68 69 69 68 61 61 61 
66 69 69 69 68 67 66 64 66 69 69 67 64 63 64 68 
69 69 67 61 60 63 67 43 79 82 79 73 71 70 72 74 
75 75 75 77 78 80 80 78 79 79 73 72 81 82 82 81 
80 78 77 77 77 77 74 60 69 68 68 69 68 67 67 67 
67 69 69 186 123 32 40 180 75 52 47 174 152 27 48 192 65 35 54 38 
26 38 37 45 47 44 52 67 55 38 36 37 40 64 67 60 
38 33 37 37 38 48 39 54 43 40 40 43 49 54 53 40 
38 38 45 62 67 58 51 47 40 40 43 59 66 67 67 61 
54 54 54 54 50 42 40 41 33 44 62 64 36 47 39 34 
42 50 54 47 47 47 47 41 43 51 45 37 38 47 47 47 
44 37 38 186 79 33 50 188 89 31 38 175 120 29 56 192 64 31 55 30 
51 81 82 81 81 81 81 81 81 82 82 82 81 81 81 81 
82 80 79 82 82 82 60 77 81 81 81 81 81 81 81 81 
82 82 81 81 81 81 81 81 81 81 81 81 81 81 81 81 
81 81 81 81 81 81 81 77 52 82 81 81 82 80 81 82 
81 81 81 81 81 81 81 82 78 76 79 81 82 81 81 81 
81 82 82 187 70 33 42 184 110 30 41 178 114 30 49 189 78 33 56 29 
54 81 81 81 81 81 81 81 81 81 81 81 81 81 81 81 
81 81 81 81 81 81 59 76 81 81 81 81 81 81 81 81 
81 81 81 81 81 81 81 81 81 81 81 81 81 81 81 81 
81 81 81 81 81 81 81 76 51 81 81 81 81 81 81 81 
81 81 81 81 81 81 81 81 81 81 81 81 81 81 81 81 
81 81 81 187 74 33 47 188 102 31 40 175 111 30 57 191 74 29 36 27 
54 81 81 81 81 81 81 81 81 81 81 81 81 81 81 81 
81 81 81 81 81 81 59 75 81 81 81 81 81 81 81 81 
81 81 81 81 81 81 81 81 81 81 81 81 81 81 81 81 
81 81 81 81 81 81 81 75 57 81 81 81 81 81 81 81 
81 81 81 81 81 81 81 81 81 81 81 81 81 81 81 81 
81 81 81 188 83 35 47 187 97 31 39 174 127 29 53 191 70 35 54 26 
58 81 81 81 81 81 81 81 81 81 81 81 81 81 81 81 
81 81 81 81 81 81 59 75 81 81 81 81 81 81 81 81 
81 81 81 81 81 81 81 81 81 81 81 81 81 81 81 81 
81 81 81 81 81 81 81 73 57 81 81 81 81 81 81 81 
81 81 81 81 81 81 81 81 81 81 81 81 81 81 81 81 
81 81 81 188 82 42 45 185 109 30 38 176 112 30 46 189 78 38 55 31 
53 81 81 81 81 81 81 81 81 81 81 81 81 81 81 81 
81 81 81 81 81 81 65 73 81 81 81 81 81 81 81 81 
81 81 81 81 81 81 81 81 81 81 81 81 81 81 81 81 
81 81 81 81 81 81 81 76 53 81 81 81 81 81 81 81 
81 81 81 81 81 81 81 81 81 81 81 81 81 81 81 81 
81 81 81 189 87 42 58 183 110 30 40 174 114 29 63 190 81 36 55 37 
44 81 81 81 81 81 81 81 81 81 81 81 81 81 81 81 
81 81 81 81 81 81 66 72 81 81 81 81 81 81 81 81 
81 81 81 81 81 81 81 81 81 81 81 81 81 81 81 81 
81 81 81 81 81 81 81 81 45 81 81 81 81 81 81 81 
81 81 81 81 81 81 81 81 81 81 81 81 81 81 81 81 
81 81 81 185 87 42 49 183 81 32 37 174 126 29 47 192 61 33 55 31 
50 79 81 81 81 81 81 81 81 81 81 81 81 81 81 81 
81 81 81 81 81 81 58 74 81 81 81 81 81 81 81 81 
81 81 81 81 80 81 81 81 81 81 81 81 81 81 81 81 
80 81 81 81 81 81 81 83 43 81 81 81 81 81 81 81 
81 81 81 81 81 81 81 81 81 81 81 81 81 81 81 81 
81 81 81 185 77 42 52 184 90 38 39 176 112 30 55 192 65 34 55 31 
49 76 77 79 79 78 78 80 81 77 73 73 73 74 75 75 
77 77 77 76 76 78 39 77 80 75 75 75 77 77 79 79 
79 79 79 81 81 81 81 79 77 75 73 73 74 77 78 80 
82 81 81 81 81 80 78 79 42 76 73 73 76 77 77 75 
75 76 76 76 75 75 76 77 76 76 76 77 75 73 73 73 
73 75 78 187 71 42 56 189 104 40 50 181 111 29 59 191 74 36 42 36 
40 69 69 68 68 68 68 68 67 69 67 66 66 68 69 69 
69 69 69 69 69 70 39 68 68 69 69 69 69 69 68 68 
68 68 68 68 68 68 68 68 69 69 66 66 69 69 68 68 
68 69 69 68 68 68 68 69 41 69 67 67 69 69 69 69 
69 69 69 69 69 69 69 69 69 69 69 69 69 66 66 66 
67 69 68 183 72 42 51 183 80 41 48 176 102 31 49 192 61 33 49 30 
25 41 40 44 44 40 38 47 51 39 42 42 42 42 42 41 
39 39 39 40 40 40 34 40 47 33 35 34 34 38 43 42 
42 42 46 47 46 46 46 40 38 40 49 42 34 35 41 46 
52 56 60 56 48 44 38 37 37 33 40 39 37 37 36 32 
34 37 38 38 40 40 35 37 33 33 33 39 36 42 42 49 
48 44 41 190 86 42 50 184 128 39 50 178 128 38 56 190 92 31 54 31 
54 92 94 93 94 59 76 79 78 80 81 81 81 81 81 81 
81 81 81 81 81 81 81 78 79 81 81 81 81 80 80 79 
79 79 79 79 78 78 79 59 78 81 81 81 81 81 80 79 
77 77 77 50 72 73 74 74 73 74 74 74 74 74 74 74 
74 74 74 74 75 63 66 73 81 81 81 81 81 81 81 81 
81 81 79 188 111 41 46 183 127 39 47 175 144 37 58 188 93 34 54 26 
57 94 94 94 95 52 77 81 81 81 81 81 81 81 81 81 
81 81 81 81 81 81 81 81 81 81 81 81 81 81 81 81 
81 81 81 81 81 81 81 64 77 81 81 81 81 81 81 81 
80 65 66 69 106 106 106 106 106 106 106 106 106 106 106 106 
106 106 106 106 106 92 55 68 81 81 81 81 81 81 81 81 
81 81 81 189 91 41 44 180 95 40 48 175 133 38 53 190 67 39 52 25 
58 85 91 93 94 62 75 81 81 81 81 81 81 81 81 81 
81 81 81 81 81 81 81 81 81 81 81 81 81 81 81 81 
81 81 81 81 81 81 81 70 76 81 81 81 81 81 79 71 
57 75 65 94 77 57 53 53 53 53 53 53 53 53 53 53 
53 53 53 53 49 101 61 57 82 81 81 81 81 81 81 81 
81 81 81 188 107 41 48 183 111 40 46 174 144 37 54 189 78 43 54 26 
62 84 84 84 92 65 75 81 81 81 81 81 81 81 81 81 
81 81 81 81 81 81 81 81 81 81 81 81 81 81 81 81 
81 81 81 81 81 81 81 74 75 81 80 81 80 68 62 58 
88 86 62 103 58 109 102 84 84 84 84 84 84 84 84 84 
84 84 84 84 82 68 98 65 81 81 81 81 81 81 81 81 
81 81 81 187 81 44 51 186 116 39 49 178 117 39 62 190 83 39 55 32 
53 84 84 83 84 56 73 81 80 81 81 81 81 81 81 81 
81 81 81 81 81 81 81 81 81 81 81 81 81 81 81 81 
81 81 81 81 81 81 81 70 75 81 81 68 64 57 75 89 
89 72 97 73 79 85 120 120 108 109 109 109 109 109 109 114 
115 115 115 115 116 112 101 60 78 80 81 81 81 81 81 81 
81 81 81 191 86 50 48 176 94 40 53 184 118 39 51 188 76 34 55 36 
46 84 83 84 84 54 66 74 79 81 81 81 81 81 81 81 
81 81 81 81 81 81 81 81 81 81 81 81 81 81 81 81 
81 81 81 81 81 81 81 64 76 81 78 64 63 61 89 88 
87 58 103 65 86 85 116 113 92 92 92 92 92 92 92 111 
114 114 114 114 114 116 114 96 63 81 80 81 81 81 81 81 
81 81 81 181 77 50 65 187 115 41 45 171 115 39 64 190 87 29 53 36 
46 82 84 84 84 54 68 72 71 74 80 80 81 81 81 81 
81 81 81 81 81 81 81 81 81 81 81 81 81 81 81 81 
81 81 81 81 81 81 81 62 76 81 68 64 54 82 88 89 
68 93 86 75 84 86 123 100 94 94 94 94 94 94 93 111 
115 115 115 115 115 114 120 103 66 81 81 81 81 81 81 81 
81 81 81 183 91 50 57 181 135 47 50 170 120 39 55 188 98 30 53 33 
48 80 79 79 84 49 62 69 70 72 72 75 80 75 74 74 
77 80 79 77 77 77 77 77 77 77 77 79 79 78 76 76 
76 76 76 76 74 74 76 58 73 74 60 59 62 90 89 90 
65 103 55 85 84 104 118 92 94 94 94 94 94 94 93 111 
115 115 115 115 115 114 115 110 92 57 76 77 79 79 78 75 
72 71 72 181 91 50 62 186 100 49 51 169 132 46 71 191 79 33 55 33 
44 72 72 72 72 44 59 61 60 60 60 60 59 64 68 61 
60 68 67 68 68 68 68 68 68 68 68 68 68 68 68 68 
68 68 68 68 69 69 68 64 64 58 54 51 82 88 89 68 
87 93 75 85 85 123 100 93 94 94 94 94 94 94 93 111 
115 115 115 115 115 115 115 121 104 66 67 68 68 68 68 68 
69 69 69 188 87 50 65 189 103 48 56 177 117 47 74 191 83 36 55 33 
37 61 52 51 59 31 43 50 53 55 54 53 53 44 40 38 
39 51 57 52 51 51 48 52 56 55 56 54 54 54 53 51 
51 51 52 48 47 47 50 49 48 39 40 56 90 88 88 59 
106 66 84 84 94 121 94 94 94 94 94 94 94 94 93 111 
115 115 115 115 115 115 114 116 110 95 49 51 55 55 56 52 
47 45 46 183 89 50 56 184 103 48 53 174 122 47 62 190 81 36 55 33 
48 83 83 82 82 82 83 83 82 82 82 82 82 41 45 46 
46 36 95 92 92 94 58 75 80 80 80 79 79 79 80 80 
80 80 80 80 80 80 80 80 67 63 57 85 89 89 76 91 
92 63 85 83 112 106 93 94 94 94 94 94 94 94 93 111 
115 115 115 115 115 115 115 114 119 101 59 88 92 92 92 93 
93 94 93 184 90 50 51 177 101 49 54 174 129 47 60 189 78 36 54 26 
53 84 84 84 84 84 84 84 84 84 84 85 118 111 104 112 
111 114 122 94 93 94 71 75 81 81 81 81 81 81 81 81 
81 81 81 81 81 81 81 79 64 63 57 88 88 88 54 102 
71 84 85 87 122 93 94 94 94 94 94 94 94 94 93 111 
115 115 115 115 115 115 115 115 118 110 98 72 94 94 94 94 
94 94 94 188 121 49 54 183 102 49 53 171 154 45 63 193 81 35 55 32 
50 84 83 84 84 84 84 84 84 84 84 77 129 138 139 137 
135 130 120 84 84 90 71 73 80 81 81 81 81 81 81 81 
81 81 81 81 81 81 81 69 63 56 79 89 89 74 87 102 
64 85 84 106 112 93 94 94 94 94 94 94 94 94 93 111 
115 115 115 115 115 115 115 115 114 119 102 62 92 93 94 94 
94 94 94 74 63 40 45 125 63 33 35 98 91 39 46 101 57 27 39 34 
38 83 84 84 84 84 84 84 84 84 84 79 96 111 112 112 
111 111 105 84 84 84 61 69 80 81 81 81 81 81 81 81 
81 81 81 81 81 80 78 63 64 60 90 88 90 63 103 71 
77 84 84 119 95 94 94 94 94 94 94 94 94 94 93 111 
115 115 115 115 115 115 115 115 114 117 105 94 65 94 93 94 
94 94 94 64 64 64 64 63 53 68 79 76 74 72 73 74 75 75 77 79 
79 83 84 84 84 84 84 84 84 84 83 83 77 70 116 130 
117 80 81 83 84 84 60 67 72 74 81 81 81 81 81 81 
81 81 81 81 81 81 72 64 57 76 89 88 73 79 100 62 
86 84 92 113 93 94 94 94 94 94 94 94 94 94 93 111 
115 115 115 115 115 115 115 115 115 115 121 103 69 95 93 94 
94 94 94 72 72 72 72 72 60 70 84 84 83 84 84 84 84 84 83 84 
84 84 84 84 84 84 84 84 84 84 84 83 84 81 90 132 
113 83 84 83 84 85 53 67 72 71 71 75 80 81 80 81 
81 81 81 81 81 80 63 63 55 90 88 89 60 104 87 78 
85 84 117 99 94 94 94 94 94 94 94 94 94 94 93 111 
115 115 115 115 115 115 115 115 115 114 117 107 92 65 94 94 
94 94 94 72 72 72 72 72 57 69 84 84 84 84 84 84 84 84 84 84 
84 84 84 84 84 84 84 84 84 84 84 84 84 84 78 132 
100 83 84 84 84 84 61 66 72 72 72 72 71 76 80 81 
81 81 81 81 81 69 64 60 81 89 89 81 83 103 55 84 
85 88 119 92 94 94 94 94 94 94 94 94 94 94 93 111 
115 115 115 115 115 115 115 115 115 115 114 117 103 62 90 94 
94 94 94 67 69 71 71 71 47 65 75 77 80 81 83 83 82 79 76 75 
76 77 78 78 78 78 79 80 80 77 77 78 80 76 68 112 
80 76 79 81 81 82 65 60 69 69 68 68 70 72 72 74 
76 72 71 73 73 59 59 52 88 88 89 52 100 87 72 85 
84 100 99 93 94 94 94 94 94 94 94 94 94 94 93 111 
115 115 115 115 115 115 115 115 115 115 114 120 107 98 70 89 
88 88 89 60 60 60 60 60 35 71 72 71 71 71 71 71 71 71 72 72 
72 71 71 71 71 71 71 71 71 72 72 71 71 72 72 64 
74 71 71 71 71 71 63 55 60 60 60 60 60 60 60 60 
60 62 67 68 59 53 51 77 89 89 80 82 105 67 85 84 
83 119 94 94 94 94 94 94 94 94 94 94 94 94 93 111 
115 115 115 115 115 115 115 115 115 115 115 114 117 101 60 77 
80 80 80 49 51 52 52 52 32 47 53 58 57 60 62 62 62 58 54 52 
54 57 57 59 59 58 59 59 59 55 54 60 61 53 52 52 
55 58 59 59 59 59 55 45 51 50 49 50 53 54 56 53 
50 49 48 51 41 43 56 90 90 84 61 102 93 62 84 84 
97 108 93 93 93 93 93 93 93 93 93 93 93 93 93 111 
115 115 115 115 115 115 115 115 115 115 115 115 119 101 88 58 
64 64 64 73 66 61 60 64 72 72 72 72 72 65 60 60 61 71 72 72 
72 72 72 72 73 48 67 72 72 72 72 72 72 72 72 72 
72 72 72 72 72 72 72 72 72 72 72 69 59 53 48 59 
73 72 72 66 57 54 71 80 55 58 61 101 82 85 104 87 
109 94 96 96 96 96 96 96 96 96 96 96 96 96 95 106 
109 109 109 109 109 109 109 109 109 109 109 109 115 101 76 74 
81 81 81 71 72 72 72 72 72 72 72 71 72 72 72 72 72 72 72 72 
72 72 72 72 72 50 63 72 72 72 72 72 72 72 72 72 
72 72 72 72 72 72 72 72 72 72 71 72 72 72 72 72 
71 72 71 56 57 51 57 66 70 73 63 101 94 59 93 122 
117 97 98 98 98 98 98 98 98 98 98 98 98 98 97 100 
101 101 101 101 101 101 101 101 101 101 101 101 113 101 64 79 
81 81 81 72 72 72 72 72 72 72 72 72 72 72 72 72 72 72 72 72 
72 72 72 72 72 64 60 72 72 72 72 72 72 72 72 72 
72 72 72 72 72 72 72 72 72 72 72 72 72 72 72 72 
72 72 71 55 57 55 74 72 71 72 64 101 103 52 85 109 
121 96 98 98 98 98 98 98 98 98 98 98 98 98 97 100 
102 102 102 102 102 102 102 102 102 102 102 100 115 101 56 82 
81 81 81 72 72 72 72 72 72 72 72 72 72 72 72 72 72 72 72 72 
72 72 72 72 72 62 62 72 72 72 72 72 72 72 72 72 
72 72 72 72 72 72 72 72 72 72 72 72 72 72 72 72 
72 72 72 58 56 51 73 72 72 71 67 96 105 54 85 102 
125 96 97 98 98 98 98 98 98 98 98 98 98 98 97 100 
102 102 102 102 102 102 102 102 102 102 102 100 116 100 62 82 
81 81 81 72 72 72 72 72 72 72 72 72 72 72 71 72 72 72 72 72 
72 72 72 72 72 57 64 72 71 72 72 72 72 72 72 72 
72 72 72 72 72 72 72 72 72 72 72 72 72 72 72 72 
72 72 72 61 57 53 68 72 72 72 68 83 104 63 71 95 
125 102 97 98 98 98 98 98 98 98 98 98 98 98 97 100 
102 102 102 102 102 102 102 102 102 102 102 104 113 100 66 81 
81 81 81 61 60 61 62 63 63 63 63 63 63 64 65 65 65 64 63 63 
63 63 63 63 64 58 55 64 65 64 62 62 62 62 63 63 
63 63 64 64 63 63 63 63 63 63 63 63 63 63 62 62 
63 63 63 57 49 49 64 72 72 72 69 70 104 74 55 89 
125 107 97 98 98 98 98 98 98 98 98 98 98 94 97 96 
102 101 102 102 102 102 102 102 102 102 102 108 109 99 65 71 
70 69 68 61 61 61 61 61 61 61 61 61 61 61 61 61 61 61 61 61 
61 61 61 61 60 61 51 61 61 61 61 61 61 61 61 61 
61 61 61 61 61 61 61 61 61 61 61 61 61 61 61 61 
61 61 60 58 48 47 61 71 72 72 71 56 103 84 52 81 
125 112 97 98 98 98 98 98 98 98 98 97 97 122 176 126 
92 102 102 102 102 102 102 102 102 102 102 113 104 93 65 67 
68 68 68 61 61 61 61 61 61 61 61 61 61 61 61 61 61 61 61 61 
61 61 61 61 61 61 50 61 61 61 61 61 61 61 61 61 
61 61 61 61 61 61 61 61 61 61 61 61 61 61 61 61 
61 61 61 59 48 47 56 72 72 72 72 52 101 89 50 79 
120 118 97 98 98 98 98 98 98 98 98 98 96 106 120 103 
95 95 102 102 102 102 102 102 102 102 101 118 102 80 65 68 
68 68 68 61 61 61 61 61 61 61 61 61 61 61 61 61 61 61 61 61 
61 61 61 61 61 57 52 61 61 61 61 61 61 61 61 61 
61 61 61 61 61 61 61 61 61 61 61 61 61 61 61 61 
61 61 61 60 48 47 54 72 72 72 72 57 96 94 49 74 
116 119 98 98 98 98 98 98 98 98 98 98 96 93 97 98 
90 98 102 102 102 102 102 102 102 102 101 116 102 68 66 68 
68 68 68 47 45 45 48 51 52 53 52 52 54 58 60 62 62 61 54 52 
52 52 52 54 54 47 46 55 60 57 49 49 49 49 49 52 
52 54 57 57 54 51 49 50 51 52 52 52 51 49 47 47 
49 49 49 49 41 44 50 72 71 72 72 63 92 99 49 62 
113 121 98 98 98 98 98 98 98 98 98 97 98 87 83 84 
91 102 102 102 102 102 102 102 102 102 101 113 103 55 61 61 
58 54 52 86 86 87 78 68 64 41 58 56 51 42 37 36 37 36 56 56 
56 56 56 56 56 56 56 48 31 45 66 68 68 63 61 56 
56 50 43 43 50 57 62 48 53 62 62 62 62 62 68 68 
68 68 68 67 49 37 37 71 72 72 72 68 88 104 49 52 
110 122 98 98 98 98 98 98 98 98 98 98 97 98 98 101 
102 101 102 102 102 102 102 102 102 102 101 111 101 50 55 56 
62 75 83 84 84 83 84 84 84 52 74 72 72 72 72 72 72 72 72 72 
72 72 72 72 72 72 72 72 72 72 72 72 72 72 72 72 
72 72 72 72 72 72 72 58 58 72 72 72 72 72 72 72 
72 72 72 72 64 56 55 65 72 72 72 72 80 104 62 49 
101 123 99 97 98 98 98 98 98 98 98 98 98 92 100 89 
101 101 102 102 102 102 102 102 102 101 102 108 95 61 81 81 
81 81 80 84 84 84 84 84 84 51 74 72 72 72 72 72 72 72 72 72 
72 72 72 72 72 72 72 72 72 72 72 72 72 72 72 72 
72 72 72 72 72 72 72 57 58 72 72 72 72 72 72 72 
72 72 72 72 68 56 55 59 72 72 72 72 73 104 74 49 
90 123 105 97 98 98 98 98 98 98 98 97 98 152 154 104 
88 100 102 102 101 102 102 102 102 101 106 106 90 70 81 81 
81 81 81 84 84 84 84 84 84 49 74 72 72 72 72 72 72 72 72 72 
72 72 72 72 72 72 72 72 72 72 72 72 72 72 72 72 
72 72 72 72 72 72 72 57 58 72 72 72 72 72 72 72 
72 72 72 71 72 56 56 53 72 72 72 72 64 104 87 50 
79 124 112 97 98 98 98 98 98 98 98 98 95 119 115 99 
92 95 101 102 115 109 101 102 102 101 112 104 84 77 81 81 
81 81 81 84 84 84 84 84 84 46 75 72 72 72 72 72 72 72 72 72 
72 72 72 72 72 72 72 72 72 72 72 72 72 72 72 72 
72 72 72 72 72 72 72 59 58 72 72 72 72 72 72 72 
72 72 72 72 72 58 57 52 71 72 72 72 55 105 99 50 
69 125 118 97 98 98 98 98 98 98 98 98 97 94 97 95 
85 99 101 125 121 128 100 102 102 101 117 103 77 82 81 81 
81 81 81 84 84 84 84 84 84 48 73 72 72 72 72 72 72 72 72 72 
72 72 72 72 72 72 72 72 72 72 72 72 72 72 72 72 
72 72 72 72 72 72 72 53 62 72 72 72 72 72 72 72 
72 72 72 72 72 59 57 54 70 72 72 71 56 99 100 52 
59 126 123 97 98 98 98 98 98 98 98 98 97 94 81 83 
96 102 101 128 120 127 100 102 102 101 121 102 72 81 81 81 
81 81 81 84 84 84 84 84 84 46 71 72 72 72 72 72 72 72 72 72 
72 72 72 72 72 72 72 72 72 72 72 72 72 72 72 72 
72 72 72 72 72 72 72 50 66 72 72 72 72 72 72 72 
72 72 72 72 72 61 57 55 69 71 72 72 61 88 100 54 
49 127 123 99 98 98 98 98 98 98 98 98 98 97 95 99 
102 101 101 127 120 127 100 102 102 102 117 103 66 81 80 81 
81 81 81 83 83 83 83 83 84 58 62 71 71 71 71 71 71 71 71 71 
71 71 71 71 71 71 71 71 71 71 71 71 71 71 71 71 
71 71 71 71 71 71 71 45 66 71 71 71 71 71 71 71 
71 71 71 71 71 63 56 56 67 72 72 72 66 79 101 57 
47 116 123 101 98 98 98 98 98 98 98 97 97 105 145 103 
96 102 101 127 120 127 100 102 102 104 112 105 57 78 80 80 
80 80 80 72 72 72 72 72 73 60 50 61 61 61 61 61 61 61 61 61 
61 61 61 61 62 61 61 61 61 61 61 61 61 61 61 62 
62 62 61 61 61 61 61 45 57 61 61 61 61 61 61 61 
61 61 61 61 61 57 47 48 61 72 72 72 72 69 102 61 
48 100 123 104 98 98 98 98 98 98 98 98 97 137 146 107 
92 97 101 127 120 127 100 102 102 105 106 98 53 61 62 63 
68 69 68 45 45 46 46 47 60 36 41 44 44 43 43 43 44 45 45 43 
43 43 44 45 49 43 41 43 43 42 43 43 41 42 43 47 
49 47 43 43 42 40 40 30 40 43 43 43 44 38 41 47 
47 43 42 42 41 39 31 32 53 72 72 72 73 65 102 73 
48 81 123 107 97 98 98 98 98 98 98 98 96 99 102 101 
92 94 101 127 120 127 100 102 101 107 102 88 44 44 43 43 
43 44 43 75 74 74 74 74 59 71 74 74 74 74 74 74 74 74 74 74 
74 74 74 67 63 69 49 71 74 74 74 74 74 74 74 66 
63 64 75 74 74 75 75 75 74 74 74 72 63 70 74 73 
73 74 74 74 74 76 59 59 51 73 72 72 72 64 102 85 
49 64 123 112 97 98 98 98 98 98 98 97 97 88 94 93 
84 100 101 128 120 127 100 102 101 109 102 76 62 69 69 69 
69 74 75 72 72 72 72 72 72 72 72 72 72 72 72 72 72 72 72 72 
72 72 71 72 72 72 47 65 72 72 72 72 72 72 72 72 
72 72 71 72 72 72 72 72 72 72 72 72 72 72 71 72 
72 72 72 72 72 72 60 56 49 70 72 72 72 62 103 96 
48 59 122 116 96 98 98 98 98 98 98 98 97 98 88 90 
101 102 101 118 122 129 100 102 101 113 102 66 71 72 72 72 
72 72 72 72 72 72 72 72 72 72 72 72 72 72 72 72 72 72 72 72 
72 72 72 72 72 72 47 65 72 72 72 72 72 72 72 72 
72 72 72 72 72 72 72 72 72 72 72 72 72 72 72 72 
72 72 72 72 72 72 63 57 36 67 72 72 72 62 102 104 
49 55 121 121 96 98 98 98 98 98 98 98 98 96 90 97 
102 101 102 101 112 107 102 102 100 116 102 63 73 72 72 72 
72 72 72 72 72 72 72 72 72 72 72 72 72 72 72 72 72 72 72 72 
72 72 72 72 72 72 45 70 72 72 72 72 72 72 72 72 
72 72 72 72 72 72 72 72 72 72 72 72 72 72 72 72 
72 72 72 72 72 72 66 56 26 65 71 72 72 64 91 104 
57 51 120 124 97 98 98 98 98 98 98 97 98 121 169 116 
92 102 102 102 102 102 102 102 100 119 102 63 72 72 72 72 
72 72 72 72 72 72 72 72 72 72 72 72 72 72 72 72 72 72 72 71 
72 72 72 72 72 72 45 70 72 72 72 72 72 72 72 72 
72 72 72 72 72 72 72 72 72 72 72 72 72 72 72 72 
72 72 72 72 72 72 68 56 29 60 72 72 72 67 79 103 
64 49 109 124 102 98 98 98 98 98 98 98 95 120 130 104 
94 96 102 102 102 102 102 102 104 114 102 63 72 72 72 72 
72 72 72 72 72 72 71 72 70 68 68 68 67 67 68 68 68 68 71 72 
72 72 72 72 72 72 47 70 72 72 72 72 72 72 72 72 
72 72 72 72 72 72 72 72 72 72 72 72 72 72 72 72 
72 72 72 72 72 72 69 56 42 51 72 72 72 69 65 103 
71 50 89 125 106 98 98 98 98 98 98 98 96 96 98 101 
91 97 102 102 102 102 102 102 108 110 103 63 72 72 72 72 
72 72 72 72 72 72 72 60 46 44 46 46 47 47 47 47 46 45 44 49 
59 72 72 72 72 72 47 70 72 72 72 72 72 72 72 72 
72 72 72 72 72 72 72 72 72 72 72 72 72 72 72 72 
72 72 72 72 72 72 71 56 43 46 73 72 72 72 54 102 
79 50 69 125 111 98 98 98 98 98 98 97 97 85 85 87 
89 102 102 102 102 102 102 102 112 104 91 65 71 72 72 72 
72 72 72 71 71 71 71 61 43 39 42 45 45 46 48 48 48 49 45 38 
49 72 71 71 71 70 45 67 71 70 71 71 70 70 70 70 
70 70 70 70 71 71 71 71 71 71 71 71 70 70 70 70 
70 71 71 71 71 70 71 57 41 46 72 72 72 72 56 100 
86 49 50 125 116 97 98 98 98 98 98 98 97 98 96 99 
102 101 102 102 102 102 102 101 115 100 79 66 70 70 70 70 
70 71 71 61 61 61 61 56 44 61 47 33 42 50 53 54 43 31 47 85 
46 61 61 61 61 61 41 59 61 61 61 61 61 61 61 61 
61 61 61 61 61 61 61 61 61 61 61 61 61 60 60 61 
61 61 61 61 61 61 61 53 34 45 67 72 72 72 61 98 
93 48 49 118 117 97 98 98 98 98 98 98 98 95 91 90 
101 101 102 102 102 102 102 101 114 101 65 60 61 61 61 61 
61 61 61 51 51 51 51 46 37 105 125 125 120 127 146 145 151 157 157 154 
39 63 60 56 52 46 34 46 55 49 50 55 48 47 44 42 
39 39 40 43 48 51 51 51 49 50 50 48 41 40 40 39 
46 51 51 50 46 42 43 42 27 36 62 72 72 72 66 95 
101 47 49 110 120 97 98 98 98 98 98 97 98 152 148 103 
88 101 102 102 102 102 102 101 113 102 53 42 44 47 47 47 
47 51 51 55 55 56 60 50 38 109 122 122 121 136 152 153 153 153 152 161 
31 40 45 51 57 61 66 47 48 57 59 55 62 65 67 70 
74 75 71 64 60 60 60 30 73 69 69 69 80 87 87 85 
73 64 63 64 69 76 75 73 56 56 56 72 72 72 70 92 
105 52 50 102 122 97 98 98 98 98 98 98 95 132 122 101 
92 95 102 102 102 102 102 101 113 99 54 65 65 65 65 65 
64 60 56 72 72 72 72 58 38 117 122 122 121 140 153 153 153 153 153 159 
57 72 72 72 72 72 72 72 72 72 72 72 72 72 72 72 
72 72 72 72 72 72 72 36 85 84 84 84 84 84 84 84 
84 84 84 84 84 84 84 83 67 67 55 71 72 72 71 81 
104 64 50 90 124 99 97 98 98 98 98 97 97 94 98 99 
87 97 102 102 102 102 101 101 111 97 60 72 72 72 72 72 
72 72 72 72 72 72 72 56 34 125 122 122 121 144 153 153 153 153 153 157 
73 72 72 72 72 72 72 72 72 72 72 72 72 72 72 72 
72 72 72 72 72 72 72 38 87 84 84 84 84 84 84 84 
84 84 84 84 84 84 84 83 68 67 58 71 72 72 71 69 
104 75 50 74 126 106 97 98 98 98 98 98 97 91 81 83 
95 102 102 102 102 102 101 107 109 93 65 72 72 72 72 72 
72 72 72 72 72 72 69 55 57 124 122 122 120 148 153 153 153 153 153 154 
91 73 71 72 72 72 72 72 72 72 72 72 72 72 72 72 
72 72 72 72 72 72 72 40 84 84 84 84 84 84 84 84 
84 84 84 84 84 84 84 83 68 67 60 71 71 72 71 58 
104 88 50 59 127 112 97 98 98 98 98 98 97 98 99 103 
102 101 102 102 102 102 101 112 106 90 70 72 72 72 72 72 
72 72 72 72 72 71 66 53 85 123 122 122 120 152 153 153 153 153 153 152 
109 69 72 72 72 72 72 72 72 72 72 72 72 72 72 72 
72 72 72 72 72 72 72 39 84 84 84 84 84 84 84 84 
84 84 84 84 84 84 84 84 72 66 63 70 72 72 72 51 
103 94 51 46 125 119 97 98 98 98 98 98 98 98 98 102 
102 102 102 102 102 102 101 117 104 81 71 72 72 72 72 72 
72 72 72 72 72 72 62 52 115 122 122 121 123 154 153 153 153 153 153 153 
131 52 72 72 72 72 72 72 72 72 72 72 72 72 72 72 
72 72 72 72 72 72 72 36 87 84 84 84 84 84 84 84 
84 84 84 84 84 84 84 84 76 66 64 64 72 72 72 57 
95 97 51 47 110 122 98 98 98 98 98 98 98 98 98 102 
102 102 102 102 102 102 101 120 102 70 71 72 72 72 72 72 
72 72 72 72 71 72 58 48 119 122 122 121 130 154 153 153 153 153 153 153 
154 36 72 72 72 72 72 72 72 72 72 72 72 72 72 72 
72 72 72 72 72 71 72 37 83 84 84 84 84 84 84 84 
84 84 84 84 84 84 84 84 81 66 65 57 72 72 72 63 
87 99 52 49 93 122 99 98 98 98 98 98 98 98 98 102 
102 102 102 102 102 102 102 117 103 60 71 72 72 72 72 72 
72 72 72 71 71 68 55 48 121 122 122 121 136 153 153 153 153 153 153 153 
156 79 68 70 70 70 70 70 70 70 70 69 69 69 70 70 
71 71 71 70 70 69 68 38 81 83 83 83 82 82 82 82 
82 82 82 82 81 80 80 81 83 63 63 51 72 72 72 69 
80 101 53 50 77 122 100 98 98 98 98 98 98 98 98 102 
102 102 102 102 102 102 103 111 104 52 69 69 69 69 70 70 
71 72 71 60 60 51 42 86 122 122 122 121 144 153 153 153 153 153 153 153 
153 136 56 61 60 60 60 60 60 60 60 60 60 60 60 60 
60 60 60 60 60 60 61 44 64 71 71 71 71 71 71 71 
71 71 71 71 71 72 71 71 72 58 57 51 71 72 71 73 
73 103 61 50 67 123 102 97 98 98 98 98 98 98 98 102 
102 102 102 102 102 102 103 107 96 52 60 60 60 60 60 60 
60 60 60 62 62 50 40 124 122 122 122 122 148 152 153 153 153 153 153 153 
152 149 48 58 63 62 58 58 58 58 58 55 50 49 58 63 
63 63 63 63 61 56 44 33 66 74 74 74 75 69 69 70 
74 74 74 66 41 52 54 60 71 45 41 44 69 72 72 72 
68 103 73 50 60 123 106 97 98 98 98 98 98 98 98 102 
102 102 102 102 102 101 105 104 88 53 54 54 52 49 55 62 
62 62 62 42 39 35 62 123 122 122 122 122 150 153 153 153 153 153 153 153 
153 153 73 46 49 49 36 52 53 51 49 54 58 58 50 47 
44 44 44 44 47 54 63 58 47 45 45 47 46 48 48 48 
48 48 48 52 25 65 63 54 24 52 52 51 66 71 72 72 
64 104 85 49 52 124 111 97 98 98 98 98 98 98 98 102 
102 102 102 102 102 101 109 103 80 53 53 53 59 62 55 48 
44 44 44 67 53 41 102 121 122 122 121 122 152 153 153 153 153 153 153 153 
153 153 152 51 71 71 43 70 71 71 71 71 71 71 71 71 
72 72 72 71 71 71 71 71 71 72 72 62 52 68 72 72 
72 72 72 52 53 72 72 71 35 64 56 57 63 72 72 72 
60 105 99 49 48 117 116 96 98 98 98 98 98 98 98 102 
102 102 102 102 102 101 113 103 71 72 72 72 72 72 72 71 
72 73 72 59 56 55 125 122 122 122 121 127 153 153 153 153 153 153 153 153 
153 152 154 73 73 70 39 73 70 70 70 70 70 70 71 71 
71 71 71 71 71 71 71 71 71 71 71 70 64 46 35 64 
72 71 71 64 45 71 71 71 38 65 55 56 59 72 72 72 
59 99 103 51 49 96 123 96 98 98 98 98 98 98 98 102 
102 102 102 102 102 101 118 103 68 72 71 71 71 71 71 71 
71 71 71 56 37 91 113 126 127 127 126 144 157 157 157 157 158 158 159 160 
161 160 144 113 38 68 39 70 68 68 68 68 68 68 68 68 
68 68 68 68 68 68 68 68 68 68 68 68 68 69 68 51 
39 68 61 38 44 69 68 68 46 60 53 54 54 73 72 72 
63 87 102 56 50 74 125 98 98 98 98 98 98 98 98 102 
102 102 102 102 102 101 121 103 64 68 68 68 68 68 68 68 
68 68 68 57 43 62 54 42 44 48 54 72 80 84 83 84 74 68 64 54 
47 45 61 80 38 64 35 66 64 64 64 64 64 64 64 64 
64 64 64 64 64 64 64 64 64 64 64 64 64 64 64 65 
38 60 37 55 65 64 64 64 48 55 50 51 49 73 72 72 
67 75 102 61 50 56 125 102 98 98 98 98 98 98 98 102 
102 102 102 102 102 104 115 104 58 64 64 64 64 64 64 64 
64 64 64 46 38 87 92 92 91 91 92 115 114 114 114 114 114 114 114 114 
114 115 115 120 32 55 32 58 56 55 55 55 55 55 55 58 
58 58 57 56 55 55 55 55 55 54 52 49 50 51 52 55 
52 34 27 25 52 55 52 51 45 42 44 42 44 69 72 72 
71 62 102 66 51 52 120 106 98 98 98 98 98 98 98 102 
102 102 102 102 102 106 110 102 51 57 56 53 53 53 53 53 
51 52 53 40 35 87 92 92 92 92 92 115 115 115 115 115 115 115 115 115 
115 115 115 120 30 46 28 47 46 46 46 46 46 46 46 46 
46 46 46 46 46 46 46 46 46 46 46 46 46 46 46 46 
46 47 47 42 34 46 46 46 36 40 37 29 34 65 72 72 
73 58 101 75 50 51 115 109 98 98 98 98 98 98 98 102 
102 102 102 102 102 109 105 90 45 46 46 46 46 46 46 46 
46 46 46 38 34 86 92 92 92 92 91 115 114 115 115 115 115 115 115 115 
115 115 115 113 31 42 27 44 42 42 42 42 42 42 42 42 
42 42 42 42 42 42 42 42 42 42 42 42 42 42 42 42 
42 42 42 41 29 39 43 43 26 34 27 25 27 61 71 72 
72 61 101 84 49 51 111 113 97 98 98 98 98 98 98 102 
102 102 102 102 101 111 101 77 40 42 42 42 42 42 42 42 
42 42 42 36 30 81 92 92 92 92 91 111 115 115 115 115 115 115 115 115 
115 115 114 96 33 38 25 39 38 38 38 38 38 38 38 38 
38 38 38 38 38 38 38 38 38 38 38 38 38 38 38 38 
38 38 38 38 38 31 26 32 21 29 38 30 29 56 72 72 
72 62 100 94 48 50 98 117 97 98 98 98 98 98 98 102 
102 102 102 102 101 112 101 65 33 38 38 38 38 38 38 38 
38 38 38 26 20 59 93 92 92 92 91 101 115 115 115 115 115 115 115 115 
115 115 115 71 25 27 15 28 27 27 27 27 27 27 27 26 
26 26 27 27 27 27 27 27 27 27 27 25 25 27 27 27 
27 27 26 28 28 28 30 27 25 24 26 21 19 46 72 72 
72 66 100 103 47 50 79 122 96 98 98 98 98 98 98 102 
102 102 102 102 101 113 101 56 21 26 27 27 27 27 27 27 
27 27 27 40 36 32 90 91 92 92 92 91 113 114 115 115 115 115 115 115 
115 114 119 41 33 38 37 38 38 38 38 38 38 38 37 36 
36 35 34 35 37 38 38 38 38 40 41 43 43 42 40 37 
36 36 34 31 27 24 29 35 39 43 42 33 34 45 72 72 
71 68 90 105 55 50 61 127 96 98 98 98 98 98 98 102 
102 102 102 102 100 115 100 53 37 35 39 39 41 41 41 41 
41 41 39 47 57 45 62 92 91 92 92 91 100 115 114 115 115 115 115 115 
115 115 76 50 58 58 58 58 58 58 58 58 58 58 58 58 
58 58 58 58 58 58 58 58 58 57 57 57 57 57 57 58 
58 58 58 58 59 51 38 30 29 25 46 47 46 46 72 72 
72 69 77 104 65 51 45 126 101 97 98 98 98 98 98 102 
102 102 102 102 101 115 99 56 58 58 58 57 57 57 57 57 
57 57 57 41 64 61 39 87 92 92 92 91 91 99 115 115 115 115 115 115 
114 110 50 64 63 63 63 63 63 63 63 63 63 63 63 63 
63 63 63 63 63 63 63 63 63 63 63 63 63 63 63 63 
63 63 63 63 63 63 63 63 63 47 24 23 27 44 65 72 
72 70 65 104 75 51 47 113 106 97 98 98 98 98 98 102 
102 102 102 102 106 111 98 60 63 63 63 63 63 63 63 63 
63 63 63 54 30 32 28 32 90 92 92 92 92 91 95 107 116 115 114 114 
110 46 69 69 69 69 69 69 69 69 69 69 69 69 69 69 
69 69 69 69 69 69 69 69 69 69 69 69 69 69 69 69 
69 69 69 69 69 69 69 69 69 70 67 60 49 52 59 72 
72 71 52 104 85 50 49 99 112 97 98 98 98 98 98 102 
102 102 102 102 111 107 92 66 69 69 69 69 69 69 69 69 
69 69 69 64 78 71 71 66 44 74 89 94 94 94 94 93 95 103 105 95 
55 77 76 76 76 76 76 76 76 76 76 76 76 76 76 76 
76 76 76 76 76 76 76 76 76 76 76 76 76 76 76 76 
76 76 76 76 76 76 76 76 76 76 76 76 60 60 53 72 
72 72 53 100 90 50 50 87 118 97 98 98 98 98 98 102 
102 102 102 102 116 103 81 73 76 76 76 76 76 76 76 76 
76 76 76 65 69 80 80 81 82 67 45 35 37 46 45 41 34 37 48 65 
82 81 81 81 81 81 81 81 81 81 81 81 81 81 81 81 
81 81 81 81 81 81 81 81 81 81 81 81 81 81 81 81 
81 81 81 81 81 81 81 81 81 81 81 81 66 65 53 71 
72 72 60 94 94 50 51 75 121 98 98 98 98 98 98 102 
102 102 102 101 118 102 69 79 81 81 81 81 81 81 81 81 
81 81 81 71 71 72 73 75 89 89 90 90 89 88 88 88 89 90 90 89 
89 89 89 89 89 89 89 89 89 89 89 89 89 89 89 89 
89 89 89 89 89 89 89 89 89 89 89 89 89 89 89 89 
89 89 89 89 89 89 89 89 89 89 89 89 74 72 60 70 
72 72 65 89 99 50 51 64 123 98 98 98 98 98 98 102 
102 102 102 101 114 103 57 89 89 89 89 89 89 89 89 89 
89 89 89 79 79 79 79 79 99 100 100 100 100 100 100 100 100 100 100 100 
100 100 100 100 100 100 100 100 100 100 100 100 100 100 100 100 
100 100 100 100 100 100 100 100 100 100 101 101 101 101 101 101 
101 101 101 101 101 101 101 101 101 101 101 101 85 81 72 69 
71 72 71 84 103 50 51 67 124 97 96 96 96 96 96 100 
100 100 100 100 112 101 56 101 101 101 101 101 101 101 101 101 
101 101 101 86 86 87 88 97 106 106 106 106 106 106 106 106 106 106 106 106 
106 106 106 107 107 107 107 107 107 107 107 107 108 108 108 108 
108 108 108 108 108 108 108 108 108 108 108 108 108 108 108 108 
108 108 108 108 108 108 108 108 108 108 108 108 96 85 84 64 
72 71 72 77 104 62 48 108 117 117 117 117 117 117 117 117 
117 117 117 117 104 95 72 108 108 108 108 108 108 108 108 108 
108 108 108 108 108 108 108 109 108 108 108 108 108 108 108 108 108 108 108 108 
108 108 108 108 108 108 108 108 108 108 108 108 108 108 108 108 
108 108 108 108 108 108 108 108 108 108 108 108 108 108 108 108 
108 108 108 108 108 108 108 108 108 108 108 108 109 97 86 77 
58 72 72 68 104 74 85 94 85 85 85 85 85 85 85 85 
85 85 85 80 89 88 87 109 108 108 108 108 108 108 108 108 
108 108 108 110 110 110 110 110 110 110 110 110 110 110 110 110 110 110 110 110 
110 110 110 110 110 110 110 110 110 110 110 110 110 110 110 110 
110 110 110 110 110 110 110 110 110 110 110 110 110 110 110 110 
110 110 110 110 110 110 110 110 110 110 110 110 110 111 104 89 
82 60 71 60 105 93 70 71 71 71 71 71 71 66 71 71 
71 71 71 70 97 81 105 110 110 110 110 110 110 110 110 110 
110 110 110 