P2
# Created by IrfanView
30 30
255
157 151 146 149 155 157 153 148 150 160 147 153 163 138 153 159 151 
154 157 156 151 144 164 151 153 154 158 161 159 152 152 155 157 158 157 157 158 159 159 159 170 154 158 175 167 153 157 
163 155 155 173 166 159 168 162 159 158 158 158 157 166 170 173 173 171 169 171 173 170 173 180 150 116 112 123 163 178 
191 179 162 169 179 168 169 178 176 175 176 175 171 188 185 183 183 185 185 183 181 186 170 97 48 29 22 28 40 81 
123 172 201 181 174 186 184 172 172 174 178 181 180 192 188 184 183 185 187 186 185 186 93 23 33 56 57 52 41 34 
40 75 165 202 182 189 190 198 191 180 169 163 160 182 184 185 183 181 181 185 190 159 37 71 125 124 109 111 124 117 
83 32 73 183 194 183 182 185 184 182 180 182 187 180 182 183 184 183 183 185 186 82 47 132 146 148 161 175 162 141 
133 84 38 145 196 190 192 194 197 198 196 196 198 184 180 177 181 188 189 182 175 39 77 134 111 127 123 146 133 132 
113 97 23 122 204 202 196 200 199 193 183 177 180 188 194 184 188 185 192 195 146 28 78 113 101 109 106 105 114 126 
117 92 23 104 208 199 195 196 196 206 182 114 111 199 205 198 201 195 197 200 159 15 70 82 90 109 97 116 116 88 
66 60 24 107 197 192 193 199 193 189 157 93 81 186 193 191 196 190 188 196 168 32 39 40 13 24 32 29 25 24 
11 32 28 102 195 192 183 183 184 189 181 161 169 183 186 184 190 186 184 191 177 80 33 28 27 31 30 31 21 39 
26 41 49 88 184 186 187 192 193 194 187 185 190 194 192 188 190 187 185 187 181 59 50 17 23 20 46 118 48 23 
23 41 72 93 182 184 201 190 191 193 185 190 191 199 197 195 194 195 195 194 192 93 101 85 58 42 90 159 85 63 
87 100 103 121 201 192 192 197 195 201 191 197 194 193 198 200 197 201 203 199 200 136 90 105 100 88 84 85 86 80 
96 103 83 136 193 194 196 192 185 196 187 195 192 177 186 192 186 187 188 181 182 167 118 91 76 79 62 58 70 77 
63 87 96 179 167 154 172 169 158 170 161 167 165 190 186 179 176 181 186 182 175 183 171 86 83 65 59 92 75 68 
78 71 117 185 178 179 180 178 175 173 174 177 178 184 186 187 187 188 189 188 186 196 189 115 70 95 79 69 79 94 
73 66 133 200 172 169 185 180 183 186 188 187 185 200 197 193 190 187 185 186 189 186 204 178 67 88 93 76 95 93 
70 62 121 194 190 188 182 183 183 183 182 180 179 201 193 188 190 193 192 191 191 189 179 192 88 71 79 74 80 65 
62 65 100 159 177 188 177 182 178 175 176 180 184 197 195 196 199 199 194 188 185 190 188 203 112 53 67 72 55 52 
55 72 101 130 124 141 160 173 178 184 185 183 181 198 202 203 198 193 192 193 194 200 188 163 102 62 68 70 63 63 
63 78 99 126 109 109 127 140 158 180 190 186 179 191 195 193 189 193 202 202 196 182 118 79 84 90 71 62 75 73 
80 84 90 126 121 106 109 113 127 148 166 178 186 200 200 197 195 203 205 181 151 91 87 106 89 75 79 88 76 74 
87 92 90 120 110 101 121 128 119 115 127 147 162 202 190 198 200 190 160 115 83 101 111 92 76 89 91 78 79 83 
86 96 133 137 108 108 112 121 122 114 122 132 130 193 208 209 175 134 107 99 105 110 113 94 76 80 83 81 88 80 
100 113 119 112 105 113 117 119 120 108 111 115 108 199 207 176 135 115 107 96 97 110 104 91 79 74 76 84 93 97 
114 127 109 95 99 105 112 117 118 103 100 97 86 193 198 148 111 105 104 95 103 104 93 90 87 76 73 80 83 93 
89 98 86 77 78 75 90 114 116 102 96 90 78 199 191 119 89 88 90 89 111 103 89 90 92 79 73 75 70 73 
60 68 66 64 68 70 93 107 113 101 93 86 74 206 178 90 78 89 94 89 105 98 85 86 90 83 80 81 74 67 
66 71 64 59 70 89 114 101 110 98 89 80 69 