P2
# Created by IrfanView
70 70
255
190 190 190 190 189 191 190 190 190 190 190 190 190 191 190 189 189 
185 168 147 79 25 19 22 18 17 14 15 20 19 17 18 18 
19 21 21 21 23 23 24 17 17 15 16 13 11 14 41 135 
179 182 183 182 182 183 184 184 183 182 183 183 183 182 181 181 
181 181 180 181 180 190 190 190 190 191 190 191 190 190 190 191 190 190 190 190 190 189 
185 175 136 55 15 18 20 16 18 18 20 23 25 37 38 33 
48 40 34 32 39 49 46 44 29 20 16 15 8 6 17 28 
92 170 181 182 183 183 183 183 183 183 183 183 182 182 182 182 
181 181 181 180 180 190 190 191 190 191 190 190 190 190 191 190 190 189 190 189 189 179 
179 177 120 28 13 18 21 26 31 36 45 43 47 63 80 70 
74 78 70 66 71 81 84 78 66 52 27 17 10 8 7 15 
15 45 145 182 182 182 182 183 182 182 183 183 182 182 182 182 
181 181 182 181 180 190 190 190 191 190 190 191 190 190 190 190 190 190 190 190 189 179 
127 65 28 12 15 29 49 60 64 85 88 83 84 92 118 118 
109 115 115 101 100 99 106 93 85 76 52 26 13 11 8 6 
7 14 35 148 182 182 183 182 183 182 183 183 182 182 182 182 
181 181 181 181 181 190 190 190 190 190 191 190 190 190 190 190 190 189 190 189 188 167 
61 18 11 14 43 81 90 103 111 129 138 130 133 132 145 148 
143 138 135 130 121 121 120 114 106 94 88 58 28 17 14 11 
8 11 17 45 163 182 183 182 182 183 182 183 183 181 182 181 
182 182 181 180 181 190 190 190 190 190 191 191 191 189 190 190 189 189 189 188 164 56 
32 17 12 47 95 115 121 132 135 144 156 160 158 154 157 154 
148 143 140 137 131 128 126 122 123 109 92 80 54 26 16 13 
10 12 12 18 81 140 175 182 183 183 183 183 182 182 183 182 
181 182 181 181 181 190 191 190 190 191 191 190 191 190 190 190 190 189 188 177 52 24 
20 15 53 100 113 127 136 142 144 153 165 166 167 162 162 160 
160 153 148 144 137 134 133 128 125 122 117 105 89 51 28 20 
13 14 12 14 40 120 128 168 182 183 182 183 182 182 182 183 
182 182 181 181 181 190 191 191 190 190 190 191 190 191 190 189 189 189 185 97 20 17 
18 39 105 118 127 133 143 149 153 162 173 174 173 170 166 164 
163 163 158 153 148 141 137 131 125 123 119 113 93 68 43 29 
25 15 10 12 16 60 133 157 170 181 182 182 182 183 182 181 
181 181 181 180 181 191 190 191 190 191 191 191 191 190 190 190 189 188 170 49 18 18 
18 96 119 127 136 143 152 158 162 168 172 172 171 172 170 168 
170 171 170 162 154 144 144 135 135 129 121 115 111 92 64 46 
43 29 12 10 12 18 49 135 169 175 182 182 182 182 182 182 
182 181 182 181 181 190 191 191 190 191 190 191 191 190 190 190 188 186 119 31 15 14 
69 115 126 134 144 155 160 168 169 169 170 171 173 176 174 177 
176 179 177 170 157 152 148 140 136 134 124 123 119 114 93 71 
39 22 12 9 11 10 17 84 168 180 179 181 182 183 181 181 
182 182 182 182 181 190 191 190 191 191 190 191 191 190 190 189 189 178 116 27 14 33 
105 121 129 140 150 159 167 170 170 168 167 168 169 171 172 170 
174 175 173 167 156 154 148 142 142 137 129 127 121 118 104 86 
47 15 15 8 11 11 13 41 157 182 180 181 181 183 182 183 
182 182 182 182 181 190 191 191 191 191 191 191 191 190 190 190 190 183 110 26 19 76 
116 129 135 144 156 163 169 170 170 167 170 176 173 175 175 173 
171 169 171 165 158 154 156 151 147 142 137 129 121 115 107 100 
77 22 20 9 9 9 10 26 131 180 182 182 183 183 182 183 
183 182 182 182 181 190 190 191 190 191 191 191 191 190 190 190 189 184 80 28 26 107 
125 133 139 148 157 160 167 170 171 169 173 177 177 184 181 175 
171 166 172 166 157 155 158 152 146 146 140 132 122 116 111 105 
90 38 22 12 10 9 12 21 127 174 180 181 181 183 182 182 
183 183 182 182 181 190 191 191 191 191 191 191 191 191 189 189 189 182 49 28 59 115 
132 135 143 149 158 161 165 165 164 169 176 178 180 175 172 171 
170 169 164 163 159 157 159 153 148 144 140 132 123 119 116 109 
99 51 25 18 13 11 14 19 121 174 180 181 182 183 182 182 
183 182 182 182 182 191 190 191 191 191 191 190 191 191 190 190 189 174 32 25 84 118 
137 140 146 152 159 166 165 165 169 169 173 178 177 175 172 170 
173 171 169 170 163 161 160 158 149 143 140 128 124 119 117 111 
99 68 31 22 20 15 19 22 100 176 180 181 181 182 183 182 
182 183 181 181 181 190 191 191 191 190 191 191 192 191 191 190 187 167 34 33 104 124 
139 143 154 158 163 173 168 168 170 172 174 175 177 173 172 170 
169 174 173 173 163 160 161 158 150 142 137 130 124 122 120 115 
100 75 36 18 21 22 22 25 76 176 180 181 181 183 183 182 
181 183 182 181 181 190 190 191 191 191 192 191 191 190 190 191 189 165 30 48 111 126 
139 148 153 157 168 172 170 168 170 171 172 180 175 174 176 172 
174 176 174 165 164 157 158 151 149 145 139 132 124 118 120 113 
103 80 45 17 18 22 23 24 62 173 181 181 181 182 182 182 
182 182 182 182 182 190 191 191 191 191 191 191 191 190 190 190 189 158 26 54 113 127 
139 146 147 154 165 170 168 168 170 172 168 183 177 172 180 178 
178 177 171 158 147 139 132 133 144 145 136 129 121 118 119 112 
104 89 50 19 16 22 20 24 46 170 180 181 182 182 182 182 
183 182 181 181 181 190 190 191 191 191 191 191 191 190 190 189 189 155 27 53 116 126 
132 127 131 135 148 163 170 169 165 172 161 181 174 169 175 176 
175 159 132 100 87 75 73 90 90 107 109 114 112 117 114 110 
105 94 56 20 18 16 17 25 40 170 180 181 182 182 181 182 
182 182 181 181 181 190 191 191 191 191 191 191 191 192 190 190 189 166 37 49 116 122 
113 81 79 69 81 116 148 161 158 165 153 179 174 166 159 146 
142 100 53 40 38 40 45 59 68 67 63 66 78 109 114 110 
104 94 58 23 17 20 15 25 38 165 181 182 182 182 182 182 
182 182 181 182 181 190 190 191 191 191 191 191 191 191 191 190 189 167 53 44 109 75 
62 52 48 36 37 47 86 112 136 149 147 171 165 170 145 117 
86 76 71 70 79 99 102 107 101 101 95 83 67 90 112 111 
105 94 59 22 14 22 15 22 42 165 180 180 183 183 182 182 
181 183 182 181 181 190 191 191 191 191 191 191 191 191 191 190 189 165 65 39 70 47 
53 52 55 64 65 63 54 69 98 133 142 161 170 162 143 105 
90 91 103 120 138 150 151 142 129 117 109 102 94 95 108 111 
108 97 63 22 15 17 19 17 41 160 180 182 181 182 182 182 
183 182 181 181 180 190 191 191 191 191 191 192 190 191 190 190 187 164 71 35 68 65 
89 107 116 133 122 102 86 76 79 112 141 157 165 157 134 109 
107 114 114 106 109 120 125 102 96 111 117 114 109 108 114 113 
113 99 60 23 14 12 11 15 34 155 180 181 181 183 182 183 
182 182 182 181 181 192 192 192 192 192 191 192 192 192 192 191 189 169 95 33 82 84 
104 104 93 104 105 102 92 75 78 84 132 156 170 150 129 119 
102 92 68 79 79 44 32 45 63 62 71 99 113 121 121 113 
117 99 65 24 16 11 10 9 28 151 181 182 183 183 182 183 
182 182 181 182 180 192 192 192 192 192 193 192 192 193 192 192 191 175 125 31 99 98 
85 64 70 78 37 51 37 75 65 72 113 155 169 142 112 105 
88 74 71 142 118 43 31 47 50 33 53 77 97 122 130 115 
116 103 68 22 11 9 18 9 27 147 180 182 183 183 183 183 
182 182 182 182 181 192 192 193 192 192 192 192 193 193 192 192 192 183 140 36 106 95 
66 46 69 135 40 41 47 151 85 88 112 157 162 135 105 103 
101 79 84 139 148 68 74 86 81 66 75 100 100 121 136 125 
115 104 73 27 9 11 16 12 25 156 182 181 183 183 183 181 
183 182 182 181 181 192 192 192 193 192 193 192 193 193 192 192 191 183 146 36 109 94 
58 42 85 132 88 72 85 128 105 105 119 151 145 126 101 116 
119 115 105 103 109 123 130 115 110 108 117 123 130 129 140 128 
117 112 85 32 16 19 40 50 90 139 181 182 182 183 183 183 
182 182 182 182 182 192 192 193 192 193 192 193 192 192 192 191 191 185 152 38 109 106 
87 82 101 105 107 107 109 107 118 116 122 134 140 122 93 110 
134 125 119 112 116 122 128 118 108 113 127 143 140 135 143 129 
118 115 95 35 20 30 57 109 131 118 145 183 183 183 183 183 
182 182 182 182 181 192 192 193 192 193 192 192 192 192 192 192 191 188 159 46 110 122 
112 98 99 104 106 107 115 130 128 113 131 141 139 117 96 101 
134 152 142 141 141 140 142 142 140 142 143 150 144 144 137 133 
110 112 99 39 20 39 69 107 92 79 105 180 183 182 181 182 
182 182 182 182 181 192 192 192 192 192 193 192 192 192 191 191 191 191 168 55 111 133 
134 129 119 116 122 145 152 138 133 108 131 146 130 113 98 101 
112 139 161 166 161 161 157 155 153 156 152 152 152 141 138 129 
105 105 95 42 20 58 100 175 123 95 112 173 182 183 182 182 
182 182 181 181 181 193 192 192 192 192 192 192 191 192 191 192 191 191 173 60 111 137 
146 141 141 139 144 149 148 145 122 110 140 147 140 121 100 102 
112 121 133 146 151 158 158 161 163 170 161 153 148 137 132 127 
105 97 86 40 20 77 118 145 135 104 133 175 183 183 182 182 
182 182 182 181 181 192 193 192 192 192 192 192 191 191 191 191 191 191 174 77 114 137 
142 148 148 148 150 151 147 135 113 130 144 150 140 132 109 88 
106 135 154 155 147 153 155 165 171 173 166 156 142 136 124 125 
108 89 75 39 32 88 136 154 132 112 139 179 183 182 182 182 
182 182 181 180 180 192 192 192 192 192 192 192 192 192 191 192 192 192 176 114 121 139 
143 151 152 153 156 156 148 134 116 141 158 148 149 143 121 97 
97 110 130 159 167 165 161 168 173 172 164 153 148 134 114 119 
111 83 64 33 44 116 104 155 150 117 140 167 182 183 183 182 
181 181 181 181 180 192 191 193 191 192 192 192 192 192 191 191 192 192 177 127 124 136 
144 154 157 159 159 154 152 128 127 156 164 170 174 154 128 112 
122 125 103 119 134 154 165 170 173 168 157 151 142 133 117 106 
109 76 50 31 51 124 128 138 172 124 127 156 181 183 181 182 
182 181 181 180 180 192 193 192 192 192 192 193 192 192 192 191 193 192 176 124 120 135 
149 153 155 155 150 147 138 107 102 137 153 152 161 118 94 100 
109 106 86 128 131 112 136 158 161 156 147 142 133 124 116 106 
104 66 45 26 54 132 155 135 164 129 111 152 181 182 183 181 
181 181 181 179 179 192 192 192 192 191 192 192 192 192 192 192 192 192 182 134 115 133 
145 149 144 153 141 128 116 92 65 75 121 123 115 80 52 39 
67 67 88 125 138 133 104 116 142 147 137 131 127 113 108 99 
98 61 38 30 59 118 129 123 151 110 108 157 181 183 183 181 
181 180 179 179 179 192 192 192 192 192 192 192 192 192 192 192 192 192 189 156 108 129 
141 139 140 137 125 110 119 121 82 54 60 75 81 75 73 88 
77 64 102 113 124 135 125 97 103 123 130 128 118 93 89 103 
89 52 31 24 64 122 138 151 114 106 116 162 182 183 181 181 
180 180 180 179 181 191 192 192 192 191 192 192 192 192 192 192 191 192 189 159 106 119 
132 133 136 127 110 117 134 120 85 61 46 62 70 67 78 74 
64 60 60 83 104 120 116 112 92 85 109 122 117 82 78 97 
78 46 29 24 82 147 142 115 132 100 128 170 182 182 181 181 
180 180 179 179 180 191 191 191 191 192 192 192 191 192 192 192 192 191 189 162 93 104 
124 131 131 109 109 130 129 103 71 53 46 50 57 71 59 58 
52 55 48 53 72 91 98 109 105 91 85 118 116 82 60 90 
68 43 31 24 97 140 145 127 122 97 142 177 182 182 181 180 
180 180 180 180 180 191 191 192 192 192 192 192 192 191 192 191 191 191 189 164 87 85 
111 123 108 100 119 114 94 77 48 47 47 49 39 58 46 54 
54 58 60 46 43 59 75 80 73 88 71 103 122 78 49 80 
75 44 31 27 119 149 152 137 99 105 155 180 181 181 180 179 
180 179 179 180 179 191 192 191 192 192 192 192 192 192 191 190 191 191 190 167 84 74 
99 115 95 101 100 91 70 52 60 65 60 48 66 81 75 55 
68 74 66 53 49 55 63 59 61 56 56 81 114 63 45 79 
70 49 29 26 112 148 144 107 86 121 167 181 181 181 180 180 
179 180 179 179 180 192 192 191 191 192 191 191 191 191 191 191 190 191 189 168 88 61 
75 99 72 65 71 67 64 54 62 68 68 82 97 102 98 79 
68 62 59 60 49 51 44 35 49 66 68 69 93 50 52 100 
61 42 30 25 45 76 87 82 89 135 172 179 180 180 180 179 
179 179 179 179 179 191 192 191 191 192 192 192 192 191 191 191 190 191 189 171 95 46 
59 91 65 57 57 55 61 57 53 54 69 81 126 115 162 147 
156 125 145 82 70 60 43 49 102 118 93 81 70 36 54 96 
65 36 25 31 31 64 83 84 98 147 177 179 179 179 179 178 
177 179 178 178 178 191 192 192 191 191 191 192 192 190 191 190 190 190 190 175 108 37 
50 77 74 77 83 79 41 30 42 129 159 168 230 188 233 198 
225 178 195 133 116 73 68 121 142 144 108 82 50 36 70 81 
60 34 23 43 44 79 84 83 114 161 179 179 179 179 178 179 
178 179 178 178 177 191 191 191 191 191 191 192 190 190 190 190 190 190 191 178 138 39 
59 55 84 97 127 132 102 47 66 163 201 201 223 210 225 206 
215 183 179 121 85 84 126 144 152 150 109 70 40 39 79 79 
51 29 23 57 63 81 82 91 133 172 180 179 179 179 179 179 
179 179 178 178 178 191 191 192 191 190 192 191 191 190 190 190 190 189 190 180 144 49 
51 42 73 103 137 145 139 118 70 108 124 131 149 133 135 118 
90 83 90 81 105 126 136 149 150 139 102 64 42 44 88 74 
38 24 26 78 72 84 89 119 161 180 180 179 178 178 179 178 
177 178 177 177 178 192 192 191 191 191 190 190 189 190 190 189 190 190 189 181 149 76 
32 43 50 83 123 140 153 137 121 99 98 109 109 108 107 130 
138 124 123 130 130 132 145 150 138 108 90 61 42 61 84 61 
30 21 30 80 76 121 155 174 179 180 180 179 178 178 179 178 
178 178 178 177 177 192 191 191 190 190 190 190 190 190 189 189 189 189 189 181 149 101 
36 40 33 54 112 130 146 144 131 129 129 123 131 140 147 157 
152 140 137 128 129 135 151 144 120 77 50 42 42 57 69 46 
19 15 44 86 79 154 180 180 180 179 179 178 179 178 179 178 
177 177 177 177 176 191 191 191 190 189 190 190 190 189 189 189 188 188 188 184 159 113 
61 42 29 51 85 121 126 143 128 122 133 129 134 137 136 144 
132 123 131 132 132 140 146 137 94 51 36 33 38 50 50 26 
18 24 77 88 82 159 181 180 180 178 178 178 178 178 177 178 
177 178 178 177 177 191 191 191 190 190 191 190 190 189 189 189 189 188 189 187 169 126 
84 32 38 43 56 72 98 135 134 119 127 115 98 98 97 100 
99 115 131 132 136 139 141 118 77 42 31 25 35 41 35 18 
17 37 100 90 82 155 180 180 179 178 178 177 178 177 177 177 
177 178 177 176 176 191 191 190 190 190 190 190 190 190 189 189 189 189 188 188 177 139 
96 53 33 51 35 37 79 127 137 132 128 110 87 77 85 85 
88 111 131 135 133 136 137 101 60 36 28 20 21 34 25 14 
30 70 106 91 85 150 180 179 177 176 176 176 177 177 177 177 
177 177 177 176 176 191 191 191 190 190 191 191 190 190 189 188 188 187 187 187 183 156 
108 82 28 35 23 29 56 109 142 132 130 118 105 73 94 97 
92 128 131 133 133 136 120 85 50 33 20 11 15 31 25 19 
64 99 107 90 84 139 177 177 177 176 177 175 176 176 176 175 
176 176 176 176 176 191 191 190 190 190 190 190 189 188 187 187 187 188 187 188 187 171 
129 90 56 30 20 22 44 86 135 143 142 134 123 107 112 131 
131 137 137 139 135 134 109 80 45 30 22 11 13 24 16 51 
94 118 109 94 85 135 176 176 176 175 175 174 175 175 176 176 
176 175 175 175 176 190 190 190 190 190 190 190 190 189 188 189 189 188 187 187 186 182 
153 104 82 26 17 21 37 78 119 146 142 138 135 141 153 160 
160 138 130 137 140 105 73 66 42 26 14 10 13 18 33 98 
107 127 111 100 90 130 174 175 174 173 174 173 173 174 175 174 
174 174 173 174 175 191 190 191 190 190 190 189 190 189 189 188 188 187 187 186 186 185 
168 123 87 56 14 15 29 66 98 134 136 139 146 159 166 160 
160 150 130 119 112 74 69 52 38 19 14 10 10 25 84 113 
127 126 116 104 95 106 170 173 173 172 172 172 173 172 173 173 
173 174 173 173 173 191 190 190 189 190 190 189 189 189 189 188 187 186 186 185 185 184 
178 148 97 71 25 17 23 50 69 106 114 119 141 174 165 148 
135 144 116 109 88 61 51 39 30 13 10 10 17 77 121 122 
139 126 122 110 101 92 150 171 171 171 171 171 171 171 171 171 
172 173 172 172 172 190 190 190 190 190 189 189 189 189 189 188 188 187 186 184 185 184 
181 165 120 83 54 21 15 40 58 94 89 111 137 152 142 132 
110 140 105 95 70 56 52 30 21 10 10 14 60 121 130 133 
140 131 125 115 110 102 108 169 170 170 169 170 169 169 170 170 
170 171 170 171 171 191 190 190 190 190 190 188 188 188 188 187 187 186 186 185 184 182 
182 176 148 96 76 40 17 24 53 61 78 103 102 125 125 129 
115 104 87 77 59 54 35 26 13 8 22 65 121 135 134 146 
145 137 126 121 120 112 98 134 168 168 162 159 168 167 168 167 
169 169 169 170 169 190 191 190 190 189 189 188 188 187 187 186 186 186 186 184 183 181 
182 180 166 121 82 70 35 18 28 36 49 71 78 84 93 113 
92 72 63 54 44 34 17 11 15 47 91 121 138 142 143 152 
148 141 130 128 127 124 112 85 100 78 41 38 89 159 166 168 
167 167 168 168 169 190 190 190 189 189 189 188 187 187 185 185 185 185 184 184 183 181 
181 181 175 143 94 77 65 24 14 17 22 33 44 51 50 63 
47 46 30 25 21 11 9 19 71 116 126 135 142 149 154 155 
152 144 138 134 131 101 49 32 33 34 35 31 33 53 148 165 
165 166 167 168 168 189 190 189 189 188 188 187 186 186 185 184 184 184 182 182 181 181 
180 180 177 157 109 78 74 62 31 12 12 13 19 23 22 16 
15 11 10 13 9 14 35 75 124 133 139 141 150 156 159 159 
156 150 139 130 67 34 31 33 34 33 31 28 28 26 65 165 
165 164 165 166 166 189 189 189 189 188 187 186 186 185 185 184 182 183 182 182 180 180 
180 179 178 168 136 89 74 73 59 26 16 11 11 13 11 16 
12 11 16 17 31 60 96 130 135 143 145 149 156 163 164 163 
161 155 103 41 38 35 34 34 35 30 25 28 27 28 33 90 
162 164 166 165 166 189 188 187 188 188 186 186 185 184 183 183 182 181 181 180 179 179 
178 178 178 173 161 121 80 71 70 46 33 23 22 28 40 41 
58 62 70 73 101 114 129 139 142 145 149 157 162 166 165 168 
160 76 34 36 32 33 33 30 34 29 25 28 30 31 26 31 
75 152 163 164 165 187 187 188 186 186 185 185 184 183 181 180 181 181 181 178 179 177 
177 176 176 175 172 152 106 74 70 61 49 69 68 74 71 82 
91 107 110 108 122 130 139 143 146 151 156 163 169 166 170 136 
55 37 38 35 35 35 28 29 35 35 31 30 25 29 29 28 
32 44 106 160 164 185 186 186 186 184 184 183 182 180 180 180 178 178 178 177 177 175 
175 175 174 175 174 169 147 100 72 69 60 78 89 91 100 102 
108 117 120 124 135 130 140 148 151 157 159 170 167 167 114 44 
34 38 34 31 34 34 35 27 31 33 37 28 32 31 33 35 
30 32 33 58 138 185 185 184 184 183 182 181 180 180 179 178 178 178 176 176 175 174 
174 174 174 173 173 171 164 136 94 72 67 63 92 100 110 116 
120 125 127 136 138 145 150 151 156 154 163 168 159 81 39 32 
36 37 42 34 30 30 32 30 32 26 34 30 29 35 35 30 
31 33 30 31 37 185 185 184 183 183 181 181 181 179 178 178 178 176 176 175 175 174 
173 173 173 171 171 171 169 162 138 93 67 69 68 85 108 118 
127 128 132 136 144 150 152 157 158 155 164 137 48 38 35 32 
35 38 36 38 35 29 36 30 29 29 31 29 29 30 35 41 
38 37 37 34 40 185 184 184 182 182 181 180 181 180 178 177 177 176 176 175 174 173 
173 173 172 172 172 170 170 169 160 121 39 82 79 86 103 120 
124 129 131 138 144 151 155 157 157 150 98 36 30 32 33 35 
37 33 31 33 33 34 35 36 31 37 33 32 32 37 36 36 
36 37 39 42 38 185 183 183 183 181 181 180 179 178 177 177 177 175 175 174 173 172 
172 172 171 171 170 170 169 168 166 91 49 80 88 96 105 117 
125 127 132 143 145 150 152 155 111 53 31 34 32 33 34 34 
30 28 36 34 35 31 33 34 34 32 38 35 33 29 35 38 
40 37 36 40 39 185 183 182 182 181 180 179 179 178 178 175 176 175 174 172 173 172 
172 171 171 170 169 170 168 167 147 41 58 63 95 100 107 115 
126 129 135 140 145 150 134 86 35 35 34 30 36 34 31 30 
32 30 29 30 33 34 34 40 37 39 33 38 42 35 39 37 
36 38 40 39 37 