P2
# Created by IrfanView
30 30
255
75 66 134 176 130 151 205 236 240 243 243 243 242 244 239 202 171 
209 203 175 184 175 143 188 120 46 55 66 36 35 74 63 160 171 147 193 229 236 239 245 243 248 248 242 240 223 178 
207 199 189 181 198 158 169 181 30 1 63 39 33 31 51 192 172 136 207 231 242 244 242 245 244 245 246 239 242 202 
187 201 185 182 187 202 159 183 116 15 61 32 34 0 65 221 136 125 213 236 240 242 244 244 250 244 246 242 213 168 
164 192 183 192 185 188 184 159 157 63 54 28 31 0 139 216 144 117 188 234 232 222 233 240 240 246 238 211 198 215 
199 186 193 182 187 186 188 174 153 127 47 27 34 44 177 211 170 105 145 212 225 216 213 228 243 245 237 221 184 92 
73 125 174 186 177 166 162 178 167 155 74 20 28 119 194 202 216 135 99 203 240 171 136 185 231 249 236 213 203 153 
169 168 165 198 178 146 119 122 124 121 126 63 28 154 206 208 188 179 93 208 177 129 127 203 233 238 236 234 239 255 
246 220 192 196 188 172 130 95 94 102 110 99 43 158 214 204 181 153 123 200 237 245 255 248 233 238 240 229 241 243 
241 240 209 210 209 187 151 114 103 116 125 112 30 127 227 215 191 163 134 189 253 242 251 245 239 242 233 229 241 246 
252 244 228 203 216 223 199 136 105 146 172 153 37 119 220 238 229 208 108 143 249 248 244 249 238 237 250 228 226 243 
247 244 230 208 209 215 223 209 181 197 201 153 76 167 207 225 234 234 158 82 227 246 247 249 234 226 234 201 224 238 
240 248 231 212 211 206 212 213 200 211 196 145 124 195 203 222 222 213 202 78 171 255 247 244 240 221 227 229 244 249 
239 241 242 207 202 210 210 208 205 183 155 178 206 191 205 221 219 209 211 99 124 244 242 244 247 250 254 251 241 230 
230 238 243 218 183 188 209 218 203 187 158 147 185 190 201 218 218 203 153 139 97 226 243 242 235 216 213 214 207 204 
229 247 244 221 177 185 198 182 183 189 205 151 84 178 196 213 219 189 165 178 129 166 255 247 236 209 213 227 230 232 
242 242 254 193 161 209 199 183 108 149 164 186 97 180 207 203 229 232 217 178 156 117 194 253 247 243 237 241 245 244 
244 244 201 124 168 226 207 197 142 174 182 195 146 207 184 194 231 248 250 220 180 164 107 189 241 240 249 245 244 239 
234 211 119 128 182 211 226 183 196 202 187 196 189 117 167 210 233 233 230 223 197 125 111 86 204 225 235 236 233 225 
225 199 143 161 192 199 223 205 205 223 155 165 190 135 178 224 213 196 202 222 224 124 141 137 195 227 226 227 225 223 
231 199 168 185 203 194 204 217 190 202 216 209 189 133 156 189 178 178 197 225 215 190 179 170 206 242 238 239 234 244 
234 204 189 188 215 184 195 230 197 184 212 228 193 96 81 144 202 221 217 170 184 223 184 195 211 234 251 249 246 243 
232 187 205 193 220 203 155 208 227 165 180 190 127 141 93 112 158 170 217 198 182 206 212 214 225 234 242 248 245 241 
205 197 201 198 212 204 179 169 192 206 172 170 122 132 85 134 181 180 211 236 230 224 200 175 180 231 250 241 242 236 
199 203 204 185 209 208 190 174 148 183 178 149 122 139 111 152 201 203 213 229 211 224 153 162 113 131 249 244 235 217 
191 197 201 168 175 219 196 161 177 211 202 144 96 139 80 173 204 207 224 230 215 214 193 159 135 98 155 236 236 199 
162 193 196 173 155 214 225 189 168 177 213 124 56 139 93 152 222 227 234 228 231 229 208 216 165 127 107 145 165 183 
185 202 205 203 201 207 232 224 190 178 169 106 74 134 118 136 217 217 233 228 218 215 212 221 193 113 142 149 124 213 
229 210 214 204 205 223 224 222 202 173 139 82 73 126 111 135 213 194 233 226 214 215 216 207 215 124 114 156 207 210 
219 229 208 227 201 222 197 191 175 146 42 63 77 118 115 71 142 216 189 227 220 223 235 232 221 175 92 161 196 167 
231 226 219 228 207 208 206 207 216 157 93 64 92 